<?xml version="1.0" encoding="iso-8859-1"?>
<!-- Generator: Adobe Illustrator 18.0.0, SVG Export Plug-In . SVG Version: 6.00 Build 0)  -->
<!DOCTYPE svg PUBLIC "-//W3C//DTD SVG 1.1//EN" "http://www.w3.org/Graphics/SVG/1.1/DTD/svg11.dtd">
<svg version="1.1" id="Capa_1" xmlns="http://www.w3.org/2000/svg" xmlns:xlink="http://www.w3.org/1999/xlink" x="0px" y="0px"
	 viewBox="0 0 186 186" style="enable-background:new 0 0 186 186;" xml:space="preserve">
<path d="M117.835,93c0,13.532-10.97,24.501-24.501,24.501S68.832,106.532,68.832,93s10.97-24.501,24.501-24.501
	S117.835,79.468,117.835,93z M186,161.667C186,175.106,175.106,186,161.667,186H24.333C10.894,186,0,175.106,0,161.667V24.333
	C0,10.894,10.894,0,24.333,0h137.333C175.106,0,186,10.894,186,24.333V161.667z M153,89.307c0-2.533-1.698-4.687-4.202-5.072
	l-12.87-1.991c-1.058-4.209-2.685-8.177-4.857-11.806l7.767-10.565c1.498-2.042,1.291-4.872-0.5-6.663l-5.218-5.223
	c-1.791-1.791-4.618-2.007-6.661-0.51l-10.564,7.748c-3.63-2.173-7.596-3.837-11.806-4.895l-1.991-12.961
	C101.713,34.865,99.559,33,97.026,33H89.64c-2.533,0-4.687,1.865-5.072,4.368l-1.991,12.953c-4.209,1.058-8.177,2.727-11.806,4.899
	l-10.565-7.746c-2.042-1.498-4.872-1.28-6.663,0.51l-5.223,5.223c-1.791,1.791-2.007,4.621-0.51,6.664l7.748,10.565
	c-2.173,3.63-3.837,7.597-4.895,11.806l-13.128,1.991C35.032,84.62,33,86.774,33,89.307v7.386c0,2.533,2.032,4.687,4.535,5.072
	l13.036,1.991c1.058,4.209,2.768,8.177,4.941,11.806l-7.725,10.565c-1.498,2.042-1.27,4.872,0.521,6.663l5.228,5.223
	c1.791,1.791,4.624,2.007,6.666,0.509l10.567-7.748c3.63,2.173,7.598,3.837,11.807,4.895l1.992,12.961
	c0.385,2.503,2.54,4.368,5.072,4.368h7.386c2.533,0,4.687-1.865,5.072-4.368l1.991-12.953c4.209-1.058,8.177-2.726,11.806-4.899
	l10.565,7.746c2.042,1.498,4.872,1.28,6.663-0.51l5.223-5.223c1.791-1.791,2.007-4.621,0.51-6.664l-7.748-10.566
	c2.173-3.629,3.837-7.597,4.895-11.806l12.795-1.991c2.503-0.385,4.202-2.539,4.202-5.072V89.307z"/>
<g>
</g>
<g>
</g>
<g>
</g>
<g>
</g>
<g>
</g>
<g>
</g>
<g>
</g>
<g>
</g>
<g>
</g>
<g>
</g>
<g>
</g>
<g>
</g>
<g>
</g>
<g>
</g>
<g>
</g>
</svg>
