<?xml version="1.0" encoding="UTF-8" standalone="no"?>
<svg
   xmlns:dc="http://purl.org/dc/elements/1.1/"
   xmlns:cc="http://creativecommons.org/ns#"
   xmlns:rdf="http://www.w3.org/1999/02/22-rdf-syntax-ns#"
   xmlns:svg="http://www.w3.org/2000/svg"
   xmlns="http://www.w3.org/2000/svg"
   viewBox="0 0 1333.3333 1333.3333"
   height="1333.3333"
   width="1333.3333"
   xml:space="preserve"
   id="svg2"
   version="1.1"><metadata
     id="metadata8"><rdf:RDF><cc:Work
         rdf:about=""><dc:format>image/svg+xml</dc:format><dc:type
           rdf:resource="http://purl.org/dc/dcmitype/StillImage" /></cc:Work></rdf:RDF></metadata><defs
     id="defs6"><linearGradient
       id="linearGradient32"
       spreadMethod="pad"
       gradientTransform="matrix(102.40887,-111.84588,-111.84588,-102.40887,451.62515,552.26404)"
       gradientUnits="userSpaceOnUse"
       y2="0"
       x2="1"
       y1="0"
       x1="0"><stop
         id="stop26"
         offset="0"
         style="stop-opacity:1;stop-color:#d66c65" /><stop
         id="stop28"
         offset="0.5"
         style="stop-opacity:1;stop-color:#e3d512" /><stop
         id="stop30"
         offset="1"
         style="stop-opacity:1;stop-color:#056f09" /></linearGradient><linearGradient
       id="linearGradient54"
       spreadMethod="pad"
       gradientTransform="matrix(102.40776,-111.84466,-111.84466,-102.40776,455.32965,555.65356)"
       gradientUnits="userSpaceOnUse"
       y2="0"
       x2="1"
       y1="0"
       x1="0"><stop
         id="stop48"
         offset="0"
         style="stop-opacity:1;stop-color:#d66c65" /><stop
         id="stop50"
         offset="0.5"
         style="stop-opacity:1;stop-color:#e3d512" /><stop
         id="stop52"
         offset="1"
         style="stop-opacity:1;stop-color:#056f09" /></linearGradient><linearGradient
       id="linearGradient76"
       spreadMethod="pad"
       gradientTransform="matrix(102.40776,-111.84466,-111.84466,-102.40776,429.94058,532.40668)"
       gradientUnits="userSpaceOnUse"
       y2="0"
       x2="1"
       y1="0"
       x1="0"><stop
         id="stop70"
         offset="0"
         style="stop-opacity:1;stop-color:#d66c65" /><stop
         id="stop72"
         offset="0.5"
         style="stop-opacity:1;stop-color:#e3d512" /><stop
         id="stop74"
         offset="1"
         style="stop-opacity:1;stop-color:#056f09" /></linearGradient><linearGradient
       id="linearGradient98"
       spreadMethod="pad"
       gradientTransform="matrix(102.40776,-111.84466,-111.84466,-102.40776,451.71936,552.3479)"
       gradientUnits="userSpaceOnUse"
       y2="0"
       x2="1"
       y1="0"
       x1="0"><stop
         id="stop92"
         offset="0"
         style="stop-opacity:1;stop-color:#d66c65" /><stop
         id="stop94"
         offset="0.5"
         style="stop-opacity:1;stop-color:#e3d512" /><stop
         id="stop96"
         offset="1"
         style="stop-opacity:1;stop-color:#056f09" /></linearGradient><linearGradient
       id="linearGradient120"
       spreadMethod="pad"
       gradientTransform="matrix(102.40776,-111.84466,-111.84466,-102.40776,465.69565,565.1449)"
       gradientUnits="userSpaceOnUse"
       y2="0"
       x2="1"
       y1="0"
       x1="0"><stop
         id="stop114"
         offset="0"
         style="stop-opacity:1;stop-color:#d66c65" /><stop
         id="stop116"
         offset="0.5"
         style="stop-opacity:1;stop-color:#e3d512" /><stop
         id="stop118"
         offset="1"
         style="stop-opacity:1;stop-color:#056f09" /></linearGradient><linearGradient
       id="linearGradient142"
       spreadMethod="pad"
       gradientTransform="matrix(102.40776,-111.84466,-111.84466,-102.40776,479.43161,577.72192)"
       gradientUnits="userSpaceOnUse"
       y2="0"
       x2="1"
       y1="0"
       x1="0"><stop
         id="stop136"
         offset="0"
         style="stop-opacity:1;stop-color:#d66c65" /><stop
         id="stop138"
         offset="0.5"
         style="stop-opacity:1;stop-color:#e3d512" /><stop
         id="stop140"
         offset="1"
         style="stop-opacity:1;stop-color:#056f09" /></linearGradient><linearGradient
       id="linearGradient164"
       spreadMethod="pad"
       gradientTransform="matrix(102.40776,-111.84466,-111.84466,-102.40776,493.16183,590.29364)"
       gradientUnits="userSpaceOnUse"
       y2="0"
       x2="1"
       y1="0"
       x1="0"><stop
         id="stop158"
         offset="0"
         style="stop-opacity:1;stop-color:#d66c65" /><stop
         id="stop160"
         offset="0.5"
         style="stop-opacity:1;stop-color:#e3d512" /><stop
         id="stop162"
         offset="1"
         style="stop-opacity:1;stop-color:#056f09" /></linearGradient><linearGradient
       id="linearGradient186"
       spreadMethod="pad"
       gradientTransform="matrix(102.40776,-111.84466,-111.84466,-102.40776,507.04785,603.00806)"
       gradientUnits="userSpaceOnUse"
       y2="0"
       x2="1"
       y1="0"
       x1="0"><stop
         id="stop180"
         offset="0"
         style="stop-opacity:1;stop-color:#d66c65" /><stop
         id="stop182"
         offset="0.5"
         style="stop-opacity:1;stop-color:#e3d512" /><stop
         id="stop184"
         offset="1"
         style="stop-opacity:1;stop-color:#056f09" /></linearGradient></defs><g
     transform="matrix(1.3333333,0,0,-1.3333333,0,1333.3333)"
     id="g10"><path
       id="path12"
       style="fill:#181818;fill-opacity:1;fill-rule:nonzero;stroke:none"
       d="M 0,0 H 1000 V 1000 H 0 Z" /><g
       id="g14"><g
         id="g16"><g
           id="g22"><g
             id="g24"><path
               id="path34"
               style="fill:url(#linearGradient32);stroke:none"
               d="m 557.269,563.39 v -19.281 c 0,-3.528 -2.88,-6.408 -6.409,-6.408 v 0 c -3.539,0 -6.409,2.88 -6.409,6.408 v 0 19.281 H 531.74 v -19.281 c 0,-3.528 -2.879,-6.408 -6.41,-6.408 v 0 c -3.54,0 -6.41,2.88 -6.41,6.408 v 0 19.281 H 506.5 v -19.281 c 0,-3.528 -2.88,-6.408 -6.41,-6.408 v 0 c -3.54,0 -6.409,2.88 -6.409,6.408 v 0 19.281 H 481.25 v -19.281 c 0,-3.528 -2.88,-6.408 -6.41,-6.408 v 0 c -3.541,0 -6.41,2.88 -6.41,6.408 v 0 19.281 h -12.881 v -19.281 c 0,-3.528 -2.869,-6.408 -6.408,-6.408 v 0 c -3.531,0 -6.411,2.88 -6.411,6.408 v 0 19.281 H 433.5 V 438.71 c 0,-4.599 3.73,-8.33 8.33,-8.33 v 0 h 116.34 c 4.599,0 8.33,3.731 8.33,8.33 v 0 124.68 z M 444.81,445.11 v 80.189 H 554.57 V 445.11 c 0,-2.17 -1.76,-3.93 -3.93,-3.93 v 0 h -101.9 c -2.17,0 -3.93,1.76 -3.93,3.93" /></g></g></g></g><g
       id="g36"><g
         id="g38"><g
           id="g44"><g
             id="g46"><path
               id="path56"
               style="fill:url(#linearGradient54);stroke:none"
               d="m 503.499,518.483 v -70.481 h 33.014 l 11.538,10.153 v 51.276 l -10.276,9.052 z m 9.094,-9.095 h 21.748 l 4.617,-4.066 v -43.054 l -5.877,-5.172 h -20.488 z" /></g></g></g></g><g
       id="g58"><g
         id="g60"><g
           id="g66"><g
             id="g68"><path
               id="path78"
               style="fill:url(#linearGradient76);stroke:none"
               d="m 451.948,518.483 v -67.472 c 0,-1.662 1.348,-3.009 3.009,-3.009 v 0 h 41.324 v 39.788 h -23.237 v -9.094 h 14.142 v -21.6 h -26.144 v 52.292 h 26.144 v -10.355 h 9.095 v 19.45 z" /></g></g></g></g><g
       id="g80"><g
         id="g82"><g
           id="g88"><g
             id="g90"><path
               id="path100"
               style="fill:url(#linearGradient98);stroke:none"
               d="m 445.732,566.21 v -22.096 c 0,-1.884 1.527,-3.41 3.411,-3.41 v 0 c 1.883,0 3.41,1.526 3.41,3.41 v 0 22.096 c 0,1.883 -1.527,3.41 -3.41,3.41 v 0 c -1.884,0 -3.411,-1.527 -3.411,-3.41" /></g></g></g></g><g
       id="g102"><g
         id="g104"><g
           id="g110"><g
             id="g112"><path
               id="path122"
               style="fill:url(#linearGradient120);stroke:none"
               d="m 471.426,566.21 v -22.096 c 0,-1.884 1.527,-3.41 3.41,-3.41 v 0 c 1.884,0 3.41,1.526 3.41,3.41 v 0 22.096 c 0,1.883 -1.526,3.41 -3.41,3.41 v 0 c -1.883,0 -3.41,-1.527 -3.41,-3.41" /></g></g></g></g><g
       id="g124"><g
         id="g126"><g
           id="g132"><g
             id="g134"><path
               id="path144"
               style="fill:url(#linearGradient142);stroke:none"
               d="m 496.678,566.21 v -22.096 c 0,-1.884 1.527,-3.41 3.411,-3.41 v 0 c 1.882,0 3.41,1.526 3.41,3.41 v 0 22.096 c 0,1.883 -1.528,3.41 -3.41,3.41 v 0 c -1.884,0 -3.411,-1.527 -3.411,-3.41" /></g></g></g></g><g
       id="g146"><g
         id="g148"><g
           id="g154"><g
             id="g156"><path
               id="path166"
               style="fill:url(#linearGradient164);stroke:none"
               d="m 521.919,566.21 v -22.096 c 0,-1.884 1.527,-3.41 3.41,-3.41 v 0 c 1.884,0 3.411,1.526 3.411,3.41 v 0 22.096 c 0,1.883 -1.527,3.41 -3.411,3.41 v 0 c -1.883,0 -3.41,-1.527 -3.41,-3.41" /></g></g></g></g><g
       id="g168"><g
         id="g170"><g
           id="g176"><g
             id="g178"><path
               id="path188"
               style="fill:url(#linearGradient186);stroke:none"
               d="m 547.447,566.21 v -22.096 c 0,-1.884 1.527,-3.41 3.411,-3.41 v 0 c 1.883,0 3.41,1.526 3.41,3.41 v 0 22.096 c 0,1.883 -1.527,3.41 -3.41,3.41 v 0 c -1.884,0 -3.411,-1.527 -3.411,-3.41" /></g></g></g></g></g></svg>