<?xml version="1.0" encoding="UTF-8" standalone="no"?>
<svg
   xmlns:dc="http://purl.org/dc/elements/1.1/"
   xmlns:cc="http://creativecommons.org/ns#"
   xmlns:rdf="http://www.w3.org/1999/02/22-rdf-syntax-ns#"
   xmlns:svg="http://www.w3.org/2000/svg"
   xmlns="http://www.w3.org/2000/svg"
   viewBox="0 0 1333.3333 1333.3333"
   height="1333.3333"
   width="1333.3333"
   xml:space="preserve"
   id="svg2"
   version="1.1"><metadata
     id="metadata8"><rdf:RDF><cc:Work
         rdf:about=""><dc:format>image/svg+xml</dc:format><dc:type
           rdf:resource="http://purl.org/dc/dcmitype/StillImage" /></cc:Work></rdf:RDF></metadata><defs
     id="defs6"><clipPath
       id="clipPath18"
       clipPathUnits="userSpaceOnUse"><path
         id="path16"
         d="M 0,1000 H 1000 V 0 H 0 Z" /></clipPath></defs><g
     transform="matrix(1.3333333,0,0,-1.3333333,0,1333.3333)"
     id="g10"><g
       id="g12"><g
         clip-path="url(#clipPath18)"
         id="g14"><g
           transform="translate(335.0811,423.9704)"
           id="g20"><path
             id="path22"
             style="fill:#121212;fill-opacity:1;fill-rule:nonzero;stroke:none"
             d="m 0,0 c -1.964,-1.127 -4.42,-1.69 -7.366,-1.69 -2.947,0 -5.484,1.081 -7.612,3.246 -2.128,2.164 -3.192,5.048 -3.192,8.649 0,3.6 1.109,6.501 3.328,8.703 2.219,2.199 4.947,3.3 8.185,3.3 1.673,0 3.228,-0.282 4.665,-0.845 1.437,-0.565 3.01,-1.592 4.72,-3.083 l 4.42,6.384 c -4.038,3.601 -8.794,5.401 -14.269,5.401 -5.475,0 -10.149,-1.891 -14.023,-5.673 -3.874,-3.785 -5.811,-8.504 -5.811,-14.161 0,-5.656 1.9,-10.338 5.702,-14.049 3.801,-3.711 8.503,-5.567 14.105,-5.567 6.693,0 11.931,2.111 15.714,6.33 v 13.533 l -8.566,0 z" /></g><g
           transform="translate(370.8208,435.9753)"
           id="g24"><path
             id="path26"
             style="fill:#121212;fill-opacity:1;fill-rule:nonzero;stroke:none"
             d="m 0,0 c -1.056,-0.946 -3.038,-1.419 -5.948,-1.419 h -6.22 V 9.876 h 6.384 c 2.728,0 4.638,-0.382 5.729,-1.146 C 1.036,7.967 1.582,6.557 1.582,4.502 1.582,2.446 1.054,0.945 0,0 m 10.258,4.529 c 0,4.437 -1.264,7.657 -3.793,9.658 -2.528,2 -6.757,3 -12.686,3 H -20.68 v -38.139 h 8.512 v 12.167 h 5.893 l 8.457,-12.167 h 10.477 l -9.658,13.64 c 4.837,1.782 7.257,5.73 7.257,11.841" /></g><g
           transform="translate(399.5752,430.737)"
           id="g28"><path
             id="path30"
             style="fill:#121212;fill-opacity:1;fill-rule:nonzero;stroke:none"
             d="M 0,0 4.802,11.077 9.549,0 Z m 0.655,22.426 -16.479,-38.14 h 9.058 l 3.547,8.238 h 15.987 l 3.547,-8.238 h 9.057 L 8.894,22.426 Z" /></g><g
           transform="translate(451.165,425.4997)"
           id="g32"><path
             id="path34"
             style="fill:#121212;fill-opacity:1;fill-rule:nonzero;stroke:none"
             d="m 0,0 c -2.092,-1.965 -5.083,-2.947 -8.976,-2.947 h -5.401 v 23.19 h 4.747 c 4.328,0 7.538,-1.011 9.63,-3.029 C 2.092,15.195 3.138,12.312 3.138,8.566 3.138,4.818 2.092,1.963 0,0 m -9.412,27.663 h -13.477 v -38.14 h 13.04 c 7.276,0 12.687,1.727 16.233,5.183 3.547,3.456 5.32,8.148 5.32,14.078 0,5.929 -1.819,10.558 -5.456,13.887 -3.638,3.328 -8.858,4.992 -15.66,4.992" /></g><g
           transform="translate(477.6562,430.4645)"
           id="g36"><path
             id="path38"
             style="fill:#121212;fill-opacity:1;fill-rule:nonzero;stroke:none"
             d="M 0,0 H 17.079 V 7.257 H 0 v 7.857 h 18.988 v 7.584 h -27.5 v -38.139 h 28.1 v 7.529 L 0,-7.912 Z" /></g><g
           transform="translate(524.417,435.9753)"
           id="g40"><path
             id="path42"
             style="fill:#121212;fill-opacity:1;fill-rule:nonzero;stroke:none"
             d="m 0,0 c -1.056,-0.946 -3.038,-1.419 -5.947,-1.419 h -6.221 V 9.876 h 6.384 c 2.728,0 4.638,-0.382 5.729,-1.146 C 1.036,7.967 1.582,6.557 1.582,4.502 1.582,2.446 1.055,0.945 0,0 m 10.258,4.529 c 0,4.437 -1.265,7.657 -3.792,9.658 -2.528,2 -6.758,3 -12.687,3 H -20.68 v -38.139 h 8.512 v 12.167 h 5.893 l 8.458,-12.167 h 10.475 l -9.657,13.64 c 4.838,1.782 7.257,5.73 7.257,11.841" /></g><g
           transform="translate(578.5156,425.4997)"
           id="g44"><path
             id="path46"
             style="fill:#121212;fill-opacity:1;fill-rule:nonzero;stroke:none"
             d="m 0,0 c -2.092,-1.965 -5.083,-2.947 -8.976,-2.947 h -5.401 v 23.19 h 4.747 c 4.328,0 7.538,-1.011 9.63,-3.029 C 2.092,15.195 3.138,12.312 3.138,8.566 3.138,4.818 2.092,1.963 0,0 M -9.411,27.663 H -22.89 v -38.14 h 13.041 c 7.276,0 12.687,1.727 16.233,5.183 3.548,3.456 5.32,8.148 5.32,14.078 0,5.929 -1.819,10.558 -5.456,13.887 -3.638,3.328 -8.857,4.992 -15.659,4.992" /></g><g
           transform="translate(606.2627,430.737)"
           id="g48"><path
             id="path50"
             style="fill:#121212;fill-opacity:1;fill-rule:nonzero;stroke:none"
             d="M 0,0 4.802,11.077 9.549,0 Z m 0.654,22.426 -16.478,-38.14 h 9.058 l 3.547,8.238 h 15.987 l 3.546,-8.238 h 9.058 L 8.894,22.426 Z" /></g><g
           transform="translate(652.6963,453.1628)"
           id="g52"><path
             id="path54"
             style="fill:#121212;fill-opacity:1;fill-rule:nonzero;stroke:none"
             d="M 0,0 -8.239,-14.187 -16.479,0 h -9.22 l 13.204,-23.08 v -15.06 h 8.512 v 15.06 L 9.222,0 Z" /></g><g
           transform="translate(688.873,433.902)"
           id="g56"><path
             id="path58"
             style="fill:#121212;fill-opacity:1;fill-rule:nonzero;stroke:none"
             d="m 0,0 c -2.001,1.781 -4.812,3.118 -8.431,4.01 -3.619,0.89 -5.929,1.665 -6.929,2.319 -1.001,0.655 -1.5,1.537 -1.5,2.648 0,1.108 0.409,1.999 1.227,2.671 0.819,0.674 1.938,1.01 3.356,1.01 3.528,0 6.947,-1.254 10.257,-3.764 l 4.311,6.219 c -1.892,1.602 -4.11,2.839 -6.656,3.711 -2.547,0.874 -5.094,1.31 -7.639,1.31 -3.893,0 -7.14,-0.982 -9.74,-2.947 -2.602,-1.964 -3.902,-4.755 -3.902,-8.375 0,-3.62 1.028,-6.274 3.084,-7.966 2.054,-1.692 5.301,-3.066 9.74,-4.12 2.8,-0.692 4.674,-1.373 5.62,-2.046 0.944,-0.674 1.418,-1.582 1.418,-2.729 0,-1.145 -0.445,-2.055 -1.337,-2.727 -0.892,-0.674 -2.119,-1.009 -3.683,-1.009 -3.492,0 -7.294,1.8 -11.404,5.401 l -5.074,-6.22 c 4.837,-4.475 10.276,-6.712 16.314,-6.712 4.183,0 7.558,1.064 10.121,3.192 2.566,2.128 3.848,4.901 3.848,8.321 C 3.001,-4.385 2,-1.782 0,0" /></g><g
           transform="translate(382.8862,402.8385)"
           id="g60"><path
             id="path62"
             style="fill:#121212;fill-opacity:1;fill-rule:nonzero;stroke:none"
             d="M 0,0 -6.244,-14.235 H -8.257 L -14.521,0 h 2.196 L -7.199,-11.693 -2.034,0 Z" /></g><path
           id="path64"
           style="fill:#121212;fill-opacity:1;fill-rule:nonzero;stroke:none"
           d="m 384.289,402.839 h 2.034 v -14.235 h -2.034 z" /><g
           transform="translate(391.2349,388.9381)"
           id="g66"><path
             id="path68"
             style="fill:#121212;fill-opacity:1;fill-rule:nonzero;stroke:none"
             d="m 0,0 c -0.997,0.332 -1.779,0.764 -2.349,1.292 l 0.752,1.586 C -1.054,2.39 -0.359,1.993 0.488,1.688 1.335,1.384 2.207,1.23 3.102,1.23 c 1.179,0 2.06,0.201 2.644,0.6 0.582,0.4 0.874,0.933 0.874,1.597 0,0.488 -0.16,0.885 -0.478,1.19 C 5.823,4.922 5.43,5.156 4.962,5.319 4.495,5.481 3.833,5.665 2.979,5.868 1.908,6.125 1.044,6.383 0.386,6.641 -0.271,6.898 -0.834,7.295 -1.302,7.83 -1.77,8.366 -2.003,9.088 -2.003,9.996 c 0,0.76 0.199,1.444 0.6,2.054 0.399,0.61 1.007,1.098 1.82,1.465 0.813,0.366 1.823,0.548 3.03,0.548 0.841,0 1.668,-0.107 2.481,-0.325 0.814,-0.217 1.512,-0.529 2.095,-0.935 L 7.352,11.176 C 6.755,11.555 6.118,11.844 5.44,12.04 4.762,12.236 4.098,12.335 3.447,12.335 2.295,12.335 1.431,12.125 0.854,11.704 0.278,11.284 -0.01,10.742 -0.01,10.078 -0.01,9.59 0.153,9.193 0.478,8.888 0.803,8.582 1.207,8.346 1.688,8.176 2.169,8.007 2.823,7.826 3.65,7.637 4.721,7.38 5.583,7.122 6.233,6.864 6.884,6.606 7.443,6.214 7.912,5.685 8.379,5.156 8.613,4.443 8.613,3.549 8.613,2.804 8.41,2.122 8.003,1.505 7.596,0.889 6.979,0.4 6.152,0.041 5.325,-0.319 4.308,-0.498 3.102,-0.498 2.03,-0.498 0.997,-0.332 0,0" /></g><g
           transform="translate(403.8745,390.067)"
           id="g70"><path
             id="path72"
             style="fill:#121212;fill-opacity:1;fill-rule:nonzero;stroke:none"
             d="m 0,0 c -1.058,1.085 -1.586,2.644 -1.586,4.678 v 8.093 H 0.447 V 4.759 c 0,-3.05 1.335,-4.575 4.007,-4.575 1.301,0 2.298,0.376 2.989,1.128 0.692,0.752 1.037,1.902 1.037,3.447 v 8.012 h 1.974 V 4.678 C 10.454,2.63 9.924,1.068 8.867,-0.01 7.809,-1.088 6.332,-1.627 4.433,-1.627 2.535,-1.627 1.057,-1.085 0,0" /></g><g
           transform="translate(426.144,393.7887)"
           id="g74"><path
             id="path76"
             style="fill:#121212;fill-opacity:1;fill-rule:nonzero;stroke:none"
             d="M 0,0 -3.071,6.976 -6.142,0 Z M 0.711,-1.627 H -6.854 L -8.42,-5.186 h -2.095 L -4.068,9.05 h 2.014 L 4.413,-5.186 H 2.278 Z" /></g><g
           transform="translate(432.2656,402.8385)"
           id="g78"><path
             id="path80"
             style="fill:#121212;fill-opacity:1;fill-rule:nonzero;stroke:none"
             d="m 0,0 h 2.034 v -12.467 h 7.708 v -1.768 H 0 Z" /></g><path
           id="path82"
           style="fill:#121212;fill-opacity:1;fill-rule:nonzero;stroke:none"
           d="m 443.939,402.839 h 2.034 v -14.235 h -2.034 z" /><g
           transform="translate(460.4741,390.3717)"
           id="g84"><path
             id="path86"
             style="fill:#121212;fill-opacity:1;fill-rule:nonzero;stroke:none"
             d="m 0,0 v -1.769 h -11.898 v 1.383 l 8.949,11.084 h -8.806 v 1.769 h 11.49 V 11.084 L -9.172,0 Z" /></g><g
           transform="translate(473.1235,390.3717)"
           id="g88"><path
             id="path90"
             style="fill:#121212;fill-opacity:1;fill-rule:nonzero;stroke:none"
             d="M 0,0 V -1.769 H -10.332 V 12.467 H -0.285 V 10.698 H -8.298 V 6.325 h 7.139 V 4.597 H -8.298 V 0 Z" /></g><g
           transform="translate(486.5264,393.5241)"
           id="g92"><path
             id="path94"
             style="fill:#121212;fill-opacity:1;fill-rule:nonzero;stroke:none"
             d="m 0,0 v -4.921 h -2.014 v 4.962 l -5.653,9.273 h 2.176 L -0.936,1.811 3.64,9.314 h 2.014 z" /></g><g
           transform="translate(502.4609,390.9616)"
           id="g96"><path
             id="path98"
             style="fill:#121212;fill-opacity:1;fill-rule:nonzero;stroke:none"
             d="M 0,0 C 0.834,0.476 1.491,1.129 1.973,1.963 2.454,2.797 2.694,3.729 2.694,4.759 2.694,5.79 2.454,6.722 1.973,7.556 1.491,8.39 0.834,9.043 0,9.519 -0.834,9.993 -1.773,10.23 -2.817,10.23 -3.861,10.23 -4.807,9.993 -5.654,9.519 -6.501,9.043 -7.166,8.39 -7.647,7.556 -8.129,6.722 -8.369,5.79 -8.369,4.759 c 0,-1.03 0.24,-1.962 0.722,-2.796 0.481,-0.834 1.146,-1.487 1.993,-1.963 0.847,-0.475 1.793,-0.711 2.837,-0.711 1.044,0 1.983,0.236 2.817,0.711 m -6.701,-1.576 c -1.153,0.631 -2.058,1.502 -2.716,2.613 -0.657,1.112 -0.986,2.353 -0.986,3.722 0,1.37 0.329,2.611 0.986,3.722 0.658,1.112 1.563,1.984 2.716,2.614 1.152,0.631 2.447,0.945 3.884,0.945 1.423,0 2.712,-0.314 3.864,-0.945 C 2.199,10.465 3.102,9.596 3.752,8.491 4.403,7.386 4.729,6.142 4.729,4.759 4.729,3.377 4.403,2.133 3.752,1.028 3.102,-0.077 2.199,-0.945 1.047,-1.576 c -1.152,-0.631 -2.441,-0.945 -3.864,-0.945 -1.437,0 -2.732,0.314 -3.884,0.945" /></g><g
           transform="translate(511.3584,390.067)"
           id="g100"><path
             id="path102"
             style="fill:#121212;fill-opacity:1;fill-rule:nonzero;stroke:none"
             d="m 0,0 c -1.058,1.085 -1.587,2.644 -1.587,4.678 v 8.093 H 0.447 V 4.759 c 0,-3.05 1.335,-4.575 4.007,-4.575 1.301,0 2.298,0.376 2.989,1.128 0.692,0.752 1.037,1.902 1.037,3.447 v 8.012 h 1.973 V 4.678 C 10.453,2.63 9.925,1.068 8.867,-0.01 7.81,-1.088 6.332,-1.627 4.434,-1.627 2.535,-1.627 1.058,-1.085 0,0" /></g><g
           transform="translate(534.0137,395.4977)"
           id="g104"><path
             id="path106"
             style="fill:#121212;fill-opacity:1;fill-rule:nonzero;stroke:none"
             d="m 0,0 c 0.679,0.556 1.018,1.349 1.018,2.379 0,1.03 -0.339,1.82 -1.018,2.37 -0.678,0.549 -1.66,0.823 -2.948,0.823 h -3.458 v -6.406 h 3.458 c 1.288,0 2.27,0.277 2.948,0.834 m 1.078,-6.895 -3.07,4.373 c -0.38,-0.027 -0.679,-0.041 -0.896,-0.041 H -6.406 V -6.895 H -8.439 V 7.341 h 5.551 c 1.845,0 3.295,-0.44 4.353,-1.321 C 2.522,5.138 3.052,3.925 3.052,2.379 3.052,1.281 2.78,0.346 2.238,-0.428 1.695,-1.2 0.923,-1.764 -0.08,-2.116 l 3.376,-4.779 z" /></g><g
           transform="translate(547.5283,389.3854)"
           id="g108"><path
             id="path110"
             style="fill:#121212;fill-opacity:1;fill-rule:nonzero;stroke:none"
             d="m 0,0 c -1.146,0.631 -2.044,1.499 -2.694,2.604 -0.652,1.105 -0.977,2.349 -0.977,3.731 0,1.383 0.325,2.627 0.977,3.732 0.65,1.105 1.551,1.974 2.704,2.604 1.152,0.631 2.441,0.945 3.864,0.945 1.112,0 2.129,-0.185 3.051,-0.558 0.922,-0.374 1.709,-0.926 2.359,-1.659 L 7.963,10.119 C 6.892,11.243 5.556,11.807 3.956,11.807 2.898,11.807 1.942,11.569 1.088,11.095 0.234,10.619 -0.434,9.966 -0.915,9.132 -1.396,8.298 -1.637,7.366 -1.637,6.335 c 0,-1.03 0.241,-1.962 0.722,-2.796 0.481,-0.834 1.149,-1.487 2.003,-1.963 0.854,-0.474 1.81,-0.711 2.868,-0.711 1.586,0 2.921,0.57 4.007,1.708 L 9.284,1.292 C 8.634,0.56 7.844,0.003 6.915,-0.376 5.986,-0.756 4.966,-0.945 3.854,-0.945 2.431,-0.945 1.146,-0.631 0,0" /></g><g
           transform="translate(571.5576,402.8385)"
           id="g112"><path
             id="path114"
             style="fill:#121212;fill-opacity:1;fill-rule:nonzero;stroke:none"
             d="m 0,0 v -14.235 h -2.034 v 6.345 h -8.176 v -6.345 h -2.034 V 0 h 2.034 v -6.121 h 8.176 V 0 Z" /></g><g
           transform="translate(583.7803,393.7887)"
           id="g116"><path
             id="path118"
             style="fill:#121212;fill-opacity:1;fill-rule:nonzero;stroke:none"
             d="M 0,0 -3.071,6.976 -6.142,0 Z M 0.712,-1.627 H -6.854 L -8.42,-5.186 h -2.095 L -4.067,9.05 h 2.012 L 4.413,-5.186 H 2.278 Z" /></g><g
           transform="translate(602.1455,402.8385)"
           id="g120"><path
             id="path122"
             style="fill:#121212;fill-opacity:1;fill-rule:nonzero;stroke:none"
             d="m 0,0 v -14.235 h -1.668 l -8.542,10.616 v -10.616 h -2.034 V 0 h 1.668 l 8.542,-10.616 0,10.616 z" /></g><g
           transform="translate(615.873,395.8024)"
           id="g124"><path
             id="path126"
             style="fill:#121212;fill-opacity:1;fill-rule:nonzero;stroke:none"
             d="m 0,0 h 1.953 v -5.552 c -0.706,-0.584 -1.526,-1.03 -2.462,-1.343 -0.935,-0.311 -1.911,-0.467 -2.928,-0.467 -1.437,0 -2.732,0.314 -3.884,0.945 -1.153,0.631 -2.058,1.499 -2.716,2.604 -0.657,1.105 -0.985,2.349 -0.985,3.731 0,1.383 0.328,2.631 0.985,3.742 0.658,1.112 1.566,1.981 2.725,2.604 1.16,0.623 2.464,0.935 3.916,0.935 1.139,0 2.172,-0.185 3.101,-0.558 C 0.634,6.267 1.424,5.722 2.074,5.003 L 0.813,3.742 C -0.325,4.84 -1.701,5.39 -3.315,5.39 -4.399,5.39 -5.373,5.156 -6.233,4.687 -7.095,4.22 -7.769,3.569 -8.257,2.735 -8.745,1.901 -8.989,0.962 -8.989,-0.082 c 0,-1.03 0.244,-1.962 0.732,-2.796 0.488,-0.834 1.162,-1.487 2.024,-1.963 0.86,-0.474 1.827,-0.711 2.898,-0.711 1.273,0 2.386,0.305 3.335,0.915 z" /></g><g
           transform="translate(631.6348,390.3717)"
           id="g128"><path
             id="path130"
             style="fill:#121212;fill-opacity:1;fill-rule:nonzero;stroke:none"
             d="M 0,0 V -1.769 H -10.332 V 12.467 H -0.284 V 10.698 H -8.298 V 6.325 h 7.139 V 4.597 H -8.298 V 0 Z" /></g><g
           transform="translate(554.5703,487.0504)"
           id="g132"><path
             id="path134"
             style="fill:#121212;fill-opacity:1;fill-rule:nonzero;stroke:none"
             d="M 0,0 C 0,-2.171 -1.761,-3.931 -3.931,-3.931 H -105.83 c -2.17,0 -3.93,1.76 -3.93,3.931 V 80.189 H 0 Z M 2.699,118.279 V 99 c 0,-3.53 -2.88,-6.41 -6.409,-6.41 -3.54,0 -6.41,2.88 -6.41,6.41 v 19.279 H -22.83 V 99 c 0,-3.53 -2.88,-6.41 -6.41,-6.41 -3.54,0 -6.41,2.88 -6.41,6.41 v 19.279 H -48.07 V 99 c 0,-3.53 -2.88,-6.41 -6.41,-6.41 -3.541,0 -6.41,2.88 -6.41,6.41 v 19.279 H -73.32 V 99 c 0,-3.53 -2.88,-6.41 -6.41,-6.41 -3.541,0 -6.41,2.88 -6.41,6.41 v 19.279 H -99.021 V 99 c 0,-3.53 -2.869,-6.41 -6.409,-6.41 -3.53,0 -6.41,2.88 -6.41,6.41 v 19.279 h -9.23 V -6.4 c 0,-4.6 3.73,-8.33 8.33,-8.33 H 3.6 c 4.599,0 8.33,3.73 8.33,8.33 v 124.679 z" /></g><g
           transform="translate(512.5928,499.0368)"
           id="g136"><path
             id="path138"
             style="fill:#121212;fill-opacity:1;fill-rule:nonzero;stroke:none"
             d="m 0,0 v 52.292 h 21.748 l 4.617,-4.066 V 5.171 L 20.488,0 Z M 35.459,1.059 V 52.334 L 25.183,61.386 H -9.094 V -9.095 H 23.92 Z" /></g><g
           transform="translate(454.957,489.942)"
           id="g140"><path
             id="path142"
             style="fill:#121212;fill-opacity:1;fill-rule:nonzero;stroke:none"
             d="M 0,0 H 41.324 V 39.788 H 18.088 V 30.693 H 32.229 V 9.095 H 6.085 V 61.387 H 32.229 V 51.03 h 9.095 V 70.48 H -3.009 V 3.009 C -3.009,1.348 -1.662,0 0,0" /></g><g
           transform="translate(449.1431,582.6432)"
           id="g144"><path
             id="path146"
             style="fill:#121212;fill-opacity:1;fill-rule:nonzero;stroke:none"
             d="m 0,0 c 1.883,0 3.41,1.527 3.41,3.411 v 22.095 c 0,1.884 -1.527,3.411 -3.41,3.411 -1.883,0 -3.411,-1.527 -3.411,-3.411 V 3.411 C -3.411,1.527 -1.883,0 0,0" /></g><g
           transform="translate(474.8364,582.6432)"
           id="g148"><path
             id="path150"
             style="fill:#121212;fill-opacity:1;fill-rule:nonzero;stroke:none"
             d="m 0,0 c 1.883,0 3.41,1.527 3.41,3.411 v 22.095 c 0,1.884 -1.527,3.411 -3.41,3.411 -1.883,0 -3.41,-1.527 -3.41,-3.411 V 3.411 C -3.41,1.527 -1.883,0 0,0" /></g><g
           transform="translate(500.0884,582.6432)"
           id="g152"><path
             id="path154"
             style="fill:#121212;fill-opacity:1;fill-rule:nonzero;stroke:none"
             d="m 0,0 c 1.883,0 3.411,1.527 3.411,3.411 v 22.095 c 0,1.884 -1.528,3.411 -3.411,3.411 -1.883,0 -3.411,-1.527 -3.411,-3.411 V 3.411 C -3.411,1.527 -1.883,0 0,0" /></g><g
           transform="translate(525.3291,582.6432)"
           id="g156"><path
             id="path158"
             style="fill:#121212;fill-opacity:1;fill-rule:nonzero;stroke:none"
             d="m 0,0 c 1.884,0 3.411,1.527 3.411,3.411 v 22.095 c 0,1.884 -1.527,3.411 -3.411,3.411 -1.883,0 -3.41,-1.527 -3.41,-3.411 V 3.411 C -3.41,1.527 -1.883,0 0,0" /></g><g
           transform="translate(550.8574,582.6432)"
           id="g160"><path
             id="path162"
             style="fill:#121212;fill-opacity:1;fill-rule:nonzero;stroke:none"
             d="m 0,0 c 1.884,0 3.41,1.527 3.41,3.411 v 22.095 c 0,1.884 -1.526,3.411 -3.41,3.411 -1.884,0 -3.411,-1.527 -3.411,-3.411 V 3.411 C -3.411,1.527 -1.884,0 0,0" /></g></g></g></g></svg>