<?xml version="1.0" encoding="UTF-8" standalone="no"?>
<svg
   xmlns:dc="http://purl.org/dc/elements/1.1/"
   xmlns:cc="http://creativecommons.org/ns#"
   xmlns:rdf="http://www.w3.org/1999/02/22-rdf-syntax-ns#"
   xmlns:svg="http://www.w3.org/2000/svg"
   xmlns="http://www.w3.org/2000/svg"
   viewBox="0 0 1333.3333 1333.3333"
   height="1333.3333"
   width="1333.3333"
   xml:space="preserve"
   id="svg2"
   version="1.1"><metadata
     id="metadata8"><rdf:RDF><cc:Work
         rdf:about=""><dc:format>image/svg+xml</dc:format><dc:type
           rdf:resource="http://purl.org/dc/dcmitype/StillImage" /></cc:Work></rdf:RDF></metadata><defs
     id="defs6"><clipPath
       id="clipPath20"
       clipPathUnits="userSpaceOnUse"><path
         id="path18"
         d="M 0,1000 H 1000 V 0 H 0 Z" /></clipPath><linearGradient
       id="linearGradient152"
       spreadMethod="pad"
       gradientTransform="matrix(102.40887,-111.84588,-111.84588,-102.40887,451.62515,594.20404)"
       gradientUnits="userSpaceOnUse"
       y2="0"
       x2="1"
       y1="0"
       x1="0"><stop
         id="stop146"
         offset="0"
         style="stop-opacity:1;stop-color:#d66c65" /><stop
         id="stop148"
         offset="0.5"
         style="stop-opacity:1;stop-color:#e3d512" /><stop
         id="stop150"
         offset="1"
         style="stop-opacity:1;stop-color:#056f09" /></linearGradient><linearGradient
       id="linearGradient174"
       spreadMethod="pad"
       gradientTransform="matrix(102.40776,-111.84466,-111.84466,-102.40776,455.32965,597.59351)"
       gradientUnits="userSpaceOnUse"
       y2="0"
       x2="1"
       y1="0"
       x1="0"><stop
         id="stop168"
         offset="0"
         style="stop-opacity:1;stop-color:#d66c65" /><stop
         id="stop170"
         offset="0.5"
         style="stop-opacity:1;stop-color:#e3d512" /><stop
         id="stop172"
         offset="1"
         style="stop-opacity:1;stop-color:#056f09" /></linearGradient><linearGradient
       id="linearGradient196"
       spreadMethod="pad"
       gradientTransform="matrix(102.40776,-111.84466,-111.84466,-102.40776,429.94058,574.34668)"
       gradientUnits="userSpaceOnUse"
       y2="0"
       x2="1"
       y1="0"
       x1="0"><stop
         id="stop190"
         offset="0"
         style="stop-opacity:1;stop-color:#d66c65" /><stop
         id="stop192"
         offset="0.5"
         style="stop-opacity:1;stop-color:#e3d512" /><stop
         id="stop194"
         offset="1"
         style="stop-opacity:1;stop-color:#056f09" /></linearGradient><linearGradient
       id="linearGradient218"
       spreadMethod="pad"
       gradientTransform="matrix(102.40776,-111.84466,-111.84466,-102.40776,451.71936,594.28784)"
       gradientUnits="userSpaceOnUse"
       y2="0"
       x2="1"
       y1="0"
       x1="0"><stop
         id="stop212"
         offset="0"
         style="stop-opacity:1;stop-color:#d66c65" /><stop
         id="stop214"
         offset="0.5"
         style="stop-opacity:1;stop-color:#e3d512" /><stop
         id="stop216"
         offset="1"
         style="stop-opacity:1;stop-color:#056f09" /></linearGradient><linearGradient
       id="linearGradient240"
       spreadMethod="pad"
       gradientTransform="matrix(102.40776,-111.84466,-111.84466,-102.40776,465.69565,607.0849)"
       gradientUnits="userSpaceOnUse"
       y2="0"
       x2="1"
       y1="0"
       x1="0"><stop
         id="stop234"
         offset="0"
         style="stop-opacity:1;stop-color:#d66c65" /><stop
         id="stop236"
         offset="0.5"
         style="stop-opacity:1;stop-color:#e3d512" /><stop
         id="stop238"
         offset="1"
         style="stop-opacity:1;stop-color:#056f09" /></linearGradient><linearGradient
       id="linearGradient262"
       spreadMethod="pad"
       gradientTransform="matrix(102.40776,-111.84466,-111.84466,-102.40776,479.43161,619.66187)"
       gradientUnits="userSpaceOnUse"
       y2="0"
       x2="1"
       y1="0"
       x1="0"><stop
         id="stop256"
         offset="0"
         style="stop-opacity:1;stop-color:#d66c65" /><stop
         id="stop258"
         offset="0.5"
         style="stop-opacity:1;stop-color:#e3d512" /><stop
         id="stop260"
         offset="1"
         style="stop-opacity:1;stop-color:#056f09" /></linearGradient><linearGradient
       id="linearGradient284"
       spreadMethod="pad"
       gradientTransform="matrix(102.40776,-111.84466,-111.84466,-102.40776,493.16183,632.23364)"
       gradientUnits="userSpaceOnUse"
       y2="0"
       x2="1"
       y1="0"
       x1="0"><stop
         id="stop278"
         offset="0"
         style="stop-opacity:1;stop-color:#d66c65" /><stop
         id="stop280"
         offset="0.5"
         style="stop-opacity:1;stop-color:#e3d512" /><stop
         id="stop282"
         offset="1"
         style="stop-opacity:1;stop-color:#056f09" /></linearGradient><linearGradient
       id="linearGradient306"
       spreadMethod="pad"
       gradientTransform="matrix(102.40776,-111.84466,-111.84466,-102.40776,507.04785,644.948)"
       gradientUnits="userSpaceOnUse"
       y2="0"
       x2="1"
       y1="0"
       x1="0"><stop
         id="stop300"
         offset="0"
         style="stop-opacity:1;stop-color:#d66c65" /><stop
         id="stop302"
         offset="0.5"
         style="stop-opacity:1;stop-color:#e3d512" /><stop
         id="stop304"
         offset="1"
         style="stop-opacity:1;stop-color:#056f09" /></linearGradient></defs><g
     transform="matrix(1.3333333,0,0,-1.3333333,0,1333.3333)"
     id="g10"><path
       id="path12"
       style="fill:#121212;fill-opacity:1;fill-rule:nonzero;stroke:none"
       d="M 0,0 H 1000 V 1000 H 0 Z" /><g
       id="g14"><g
         clip-path="url(#clipPath20)"
         id="g16"><g
           transform="translate(335.0811,423.9707)"
           id="g22"><path
             id="path24"
             style="fill:#ffffff;fill-opacity:1;fill-rule:nonzero;stroke:none"
             d="m 0,0 c -1.965,-1.127 -4.42,-1.691 -7.366,-1.691 -2.947,0 -5.484,1.082 -7.612,3.247 -2.128,2.163 -3.192,5.047 -3.192,8.648 0,3.601 1.108,6.501 3.328,8.703 2.219,2.2 4.946,3.301 8.185,3.301 1.673,0 3.228,-0.282 4.666,-0.845 1.436,-0.565 3.009,-1.592 4.719,-3.083 l 4.419,6.383 c -4.037,3.602 -8.793,5.401 -14.268,5.401 -5.475,0 -10.149,-1.89 -14.023,-5.673 -3.874,-3.785 -5.811,-8.504 -5.811,-14.161 0,-5.655 1.9,-10.338 5.702,-14.048 3.801,-3.711 8.503,-5.567 14.105,-5.567 6.693,0 11.93,2.11 15.714,6.329 v 13.533 l -8.566,0 z" /></g><g
           transform="translate(370.8203,435.9756)"
           id="g26"><path
             id="path28"
             style="fill:#ffffff;fill-opacity:1;fill-rule:nonzero;stroke:none"
             d="m 0,0 c -1.055,-0.947 -3.038,-1.419 -5.947,-1.419 h -6.221 V 9.875 h 6.385 c 2.727,0 4.637,-0.381 5.728,-1.145 C 1.037,7.966 1.583,6.556 1.583,4.501 1.583,2.445 1.055,0.945 0,0 m 10.258,4.528 c 0,4.438 -1.264,7.658 -3.792,9.659 -2.528,2 -6.757,3 -12.687,3 H -20.68 v -38.14 h 8.512 v 12.168 h 5.893 L 2.183,-20.953 H 12.659 L 3.001,-7.312 c 4.838,1.782 7.257,5.73 7.257,11.84" /></g><g
           transform="translate(399.5752,430.7373)"
           id="g30"><path
             id="path32"
             style="fill:#ffffff;fill-opacity:1;fill-rule:nonzero;stroke:none"
             d="M 0,0 4.802,11.076 9.549,0 Z m 0.654,22.426 -16.478,-38.141 h 9.057 l 3.547,8.239 h 15.988 l 3.546,-8.239 h 9.058 L 8.894,22.426 Z" /></g><g
           transform="translate(451.165,425.5)"
           id="g34"><path
             id="path36"
             style="fill:#ffffff;fill-opacity:1;fill-rule:nonzero;stroke:none"
             d="m 0,0 c -2.092,-1.965 -5.083,-2.948 -8.976,-2.948 h -5.401 v 23.191 h 4.747 c 4.328,0 7.538,-1.011 9.63,-3.029 C 2.092,15.195 3.138,12.312 3.138,8.565 3.138,4.818 2.092,1.963 0,0 M -9.412,27.663 H -22.89 v -38.141 h 13.041 c 7.276,0 12.687,1.728 16.233,5.184 3.547,3.456 5.32,8.148 5.32,14.078 0,5.929 -1.819,10.558 -5.456,13.887 -3.639,3.328 -8.858,4.992 -15.66,4.992" /></g><g
           transform="translate(477.6562,430.4648)"
           id="g38"><path
             id="path40"
             style="fill:#ffffff;fill-opacity:1;fill-rule:nonzero;stroke:none"
             d="M 0,0 H 17.078 V 7.257 H 0 v 7.856 h 18.988 v 7.585 H -8.513 v -38.14 h 28.101 v 7.529 H 0 Z" /></g><g
           transform="translate(524.417,435.9756)"
           id="g42"><path
             id="path44"
             style="fill:#ffffff;fill-opacity:1;fill-rule:nonzero;stroke:none"
             d="m 0,0 c -1.056,-0.947 -3.038,-1.419 -5.947,-1.419 h -6.221 V 9.875 h 6.384 c 2.728,0 4.638,-0.381 5.729,-1.145 C 1.036,7.966 1.582,6.556 1.582,4.501 1.582,2.445 1.055,0.945 0,0 m 10.258,4.528 c 0,4.438 -1.265,7.658 -3.792,9.659 -2.528,2 -6.758,3 -12.687,3 H -20.68 v -38.14 h 8.512 v 12.168 h 5.893 L 2.183,-20.953 H 12.658 L 3.001,-7.312 c 4.838,1.782 7.257,5.73 7.257,11.84" /></g><g
           transform="translate(578.5156,425.5)"
           id="g46"><path
             id="path48"
             style="fill:#ffffff;fill-opacity:1;fill-rule:nonzero;stroke:none"
             d="m 0,0 c -2.092,-1.965 -5.083,-2.948 -8.976,-2.948 h -5.401 v 23.191 h 4.747 c 4.328,0 7.538,-1.011 9.63,-3.029 C 2.092,15.195 3.138,12.312 3.138,8.565 3.138,4.818 2.092,1.963 0,0 M -9.411,27.663 H -22.89 v -38.141 h 13.041 c 7.276,0 12.687,1.728 16.233,5.184 3.548,3.456 5.32,8.148 5.32,14.078 0,5.929 -1.819,10.558 -5.456,13.887 -3.638,3.328 -8.857,4.992 -15.659,4.992" /></g><g
           transform="translate(606.2627,430.7373)"
           id="g50"><path
             id="path52"
             style="fill:#ffffff;fill-opacity:1;fill-rule:nonzero;stroke:none"
             d="M 0,0 4.802,11.076 9.549,0 Z m 0.654,22.426 -16.478,-38.141 h 9.058 l 3.547,8.239 h 15.987 l 3.546,-8.239 h 9.058 L 8.894,22.426 Z" /></g><g
           transform="translate(652.6963,453.1631)"
           id="g54"><path
             id="path56"
             style="fill:#ffffff;fill-opacity:1;fill-rule:nonzero;stroke:none"
             d="M 0,0 -8.239,-14.187 -16.479,0 h -9.22 l 13.204,-23.08 v -15.061 h 8.512 V -23.08 L 9.222,0 Z" /></g><g
           transform="translate(688.873,433.9014)"
           id="g58"><path
             id="path60"
             style="fill:#ffffff;fill-opacity:1;fill-rule:nonzero;stroke:none"
             d="m 0,0 c -2.001,1.782 -4.812,3.119 -8.431,4.011 -3.619,0.89 -5.929,1.665 -6.929,2.318 -1.001,0.655 -1.5,1.538 -1.5,2.648 0,1.109 0.409,2 1.227,2.672 0.819,0.674 1.938,1.01 3.356,1.01 3.528,0 6.947,-1.255 10.257,-3.764 l 4.311,6.219 c -1.892,1.601 -4.11,2.838 -6.656,3.711 -2.547,0.873 -5.094,1.309 -7.639,1.309 -3.893,0 -7.14,-0.982 -9.74,-2.947 -2.602,-1.963 -3.902,-4.755 -3.902,-8.374 0,-3.62 1.028,-6.275 3.084,-7.967 2.054,-1.691 5.301,-3.065 9.74,-4.119 2.8,-0.692 4.674,-1.373 5.62,-2.047 0.944,-0.673 1.418,-1.581 1.418,-2.728 0,-1.146 -0.445,-2.056 -1.337,-2.727 -0.892,-0.675 -2.119,-1.01 -3.683,-1.01 -3.492,0 -7.294,1.801 -11.404,5.402 l -5.074,-6.221 c 4.837,-4.474 10.276,-6.711 16.314,-6.711 4.183,0 7.558,1.064 10.121,3.192 2.566,2.128 3.848,4.901 3.848,8.321 C 3.001,-4.384 2,-1.782 0,0" /></g><g
           transform="translate(382.8867,402.8389)"
           id="g62"><path
             id="path64"
             style="fill:#ffffff;fill-opacity:1;fill-rule:nonzero;stroke:none"
             d="M 0,0 -6.244,-14.236 H -8.258 L -14.521,0 h 2.196 L -7.2,-11.694 -2.034,0 Z" /></g><path
           id="path66"
           style="fill:#ffffff;fill-opacity:1;fill-rule:nonzero;stroke:none"
           d="m 384.289,402.839 h 2.034 v -14.236 h -2.034 z" /><g
           transform="translate(391.2354,388.9375)"
           id="g68"><path
             id="path70"
             style="fill:#ffffff;fill-opacity:1;fill-rule:nonzero;stroke:none"
             d="m 0,0 c -0.997,0.333 -1.78,0.764 -2.35,1.293 l 0.753,1.586 C -1.055,2.391 -0.36,1.994 0.487,1.689 1.335,1.384 2.206,1.231 3.102,1.231 c 1.178,0 2.06,0.201 2.643,0.6 0.582,0.4 0.874,0.932 0.874,1.597 0,0.488 -0.159,0.884 -0.477,1.19 C 5.823,4.923 5.43,5.157 4.962,5.319 4.494,5.482 3.833,5.665 2.979,5.868 1.907,6.126 1.043,6.384 0.386,6.641 c -0.658,0.257 -1.22,0.655 -1.689,1.19 -0.467,0.535 -0.701,1.258 -0.701,2.166 0,0.76 0.2,1.444 0.6,2.054 0.4,0.61 1.007,1.098 1.821,1.465 0.812,0.365 1.823,0.548 3.03,0.548 0.84,0 1.667,-0.108 2.481,-0.326 0.813,-0.217 1.511,-0.528 2.094,-0.934 l -0.67,-1.628 c -0.597,0.38 -1.235,0.669 -1.913,0.865 -0.677,0.196 -1.341,0.295 -1.992,0.295 -1.153,0 -2.017,-0.21 -2.593,-0.631 -0.577,-0.42 -0.865,-0.962 -0.865,-1.627 0,-0.488 0.163,-0.885 0.489,-1.189 C 0.803,8.583 1.206,8.346 1.687,8.177 2.169,8.007 2.823,7.827 3.65,7.638 4.721,7.38 5.582,7.122 6.233,6.865 6.884,6.607 7.443,6.214 7.911,5.686 8.379,5.157 8.612,4.444 8.612,3.55 8.612,2.805 8.409,2.123 8.003,1.506 7.596,0.89 6.979,0.401 6.151,0.042 5.324,-0.318 4.308,-0.497 3.102,-0.497 2.03,-0.497 0.996,-0.332 0,0" /></g><g
           transform="translate(403.874,390.0674)"
           id="g72"><path
             id="path74"
             style="fill:#ffffff;fill-opacity:1;fill-rule:nonzero;stroke:none"
             d="m 0,0 c -1.058,1.084 -1.586,2.644 -1.586,4.677 v 8.094 H 0.447 V 4.759 c 0,-3.051 1.336,-4.576 4.007,-4.576 1.302,0 2.298,0.377 2.989,1.129 0.692,0.751 1.037,1.901 1.037,3.447 v 8.012 h 1.974 V 4.677 C 10.454,2.63 9.925,1.068 8.867,-0.011 7.81,-1.088 6.332,-1.627 4.434,-1.627 2.535,-1.627 1.058,-1.085 0,0" /></g><g
           transform="translate(426.1445,393.7891)"
           id="g76"><path
             id="path78"
             style="fill:#ffffff;fill-opacity:1;fill-rule:nonzero;stroke:none"
             d="M 0,0 -3.071,6.976 -6.143,0 Z m 0.711,-1.627 h -7.565 l -1.566,-3.56 h -2.096 L -4.068,9.05 h 2.013 L 4.413,-5.187 H 2.277 Z" /></g><g
           transform="translate(432.2656,402.8389)"
           id="g80"><path
             id="path82"
             style="fill:#ffffff;fill-opacity:1;fill-rule:nonzero;stroke:none"
             d="m 0,0 h 2.033 v -12.467 h 7.709 v -1.769 H 0 Z" /></g><path
           id="path84"
           style="fill:#ffffff;fill-opacity:1;fill-rule:nonzero;stroke:none"
           d="m 443.939,402.839 h 2.033 v -14.236 h -2.033 z" /><g
           transform="translate(460.4736,390.3721)"
           id="g86"><path
             id="path88"
             style="fill:#ffffff;fill-opacity:1;fill-rule:nonzero;stroke:none"
             d="m 0,0 v -1.77 h -11.897 v 1.383 l 8.949,11.085 h -8.807 v 1.769 h 11.49 V 11.084 L -9.172,0 Z" /></g><g
           transform="translate(473.124,390.3721)"
           id="g90"><path
             id="path92"
             style="fill:#ffffff;fill-opacity:1;fill-rule:nonzero;stroke:none"
             d="M 0,0 V -1.77 H -10.332 V 12.467 H -0.285 V 10.698 H -8.299 V 6.325 H -1.16 V 4.597 H -8.299 V 0 Z" /></g><g
           transform="translate(486.5264,393.5244)"
           id="g94"><path
             id="path96"
             style="fill:#ffffff;fill-opacity:1;fill-rule:nonzero;stroke:none"
             d="M 0,0 V -4.922 H -2.014 V 0.04 l -5.654,9.274 h 2.177 l 4.555,-7.503 4.577,7.503 h 2.012 z" /></g><g
           transform="translate(502.4609,390.9619)"
           id="g98"><path
             id="path100"
             style="fill:#ffffff;fill-opacity:1;fill-rule:nonzero;stroke:none"
             d="m 0,0 c 0.834,0.475 1.491,1.129 1.973,1.963 0.481,0.834 0.721,1.766 0.721,2.796 0,1.03 -0.24,1.963 -0.721,2.797 C 1.491,8.39 0.834,9.043 0,9.518 -0.834,9.992 -1.772,10.23 -2.816,10.23 -3.861,10.23 -4.807,9.992 -5.654,9.518 -6.501,9.043 -7.166,8.39 -7.647,7.556 -8.129,6.722 -8.369,5.789 -8.369,4.759 c 0,-1.03 0.24,-1.962 0.722,-2.796 0.481,-0.834 1.146,-1.488 1.993,-1.963 0.847,-0.475 1.793,-0.712 2.838,-0.712 1.044,0 1.982,0.237 2.816,0.712 m -6.701,-1.576 c -1.153,0.631 -2.058,1.501 -2.716,2.613 -0.657,1.112 -0.985,2.353 -0.985,3.722 0,1.369 0.328,2.61 0.985,3.721 0.658,1.113 1.563,1.984 2.716,2.614 1.152,0.631 2.446,0.946 3.885,0.946 1.422,0 2.711,-0.315 3.863,-0.946 C 2.199,10.464 3.102,9.596 3.752,8.491 4.403,7.386 4.729,6.142 4.729,4.759 4.729,3.376 4.403,2.132 3.752,1.027 3.102,-0.078 2.199,-0.945 1.047,-1.576 c -1.152,-0.631 -2.441,-0.945 -3.863,-0.945 -1.439,0 -2.733,0.314 -3.885,0.945" /></g><g
           transform="translate(511.3584,390.0674)"
           id="g102"><path
             id="path104"
             style="fill:#ffffff;fill-opacity:1;fill-rule:nonzero;stroke:none"
             d="m 0,0 c -1.058,1.084 -1.587,2.644 -1.587,4.677 v 8.094 H 0.447 V 4.759 c 0,-3.051 1.335,-4.576 4.007,-4.576 1.301,0 2.298,0.377 2.989,1.129 0.692,0.751 1.037,1.901 1.037,3.447 v 8.012 h 1.973 V 4.677 C 10.453,2.63 9.925,1.068 8.867,-0.011 7.81,-1.088 6.332,-1.627 4.434,-1.627 2.535,-1.627 1.058,-1.085 0,0" /></g><g
           transform="translate(534.0137,395.4971)"
           id="g106"><path
             id="path108"
             style="fill:#ffffff;fill-opacity:1;fill-rule:nonzero;stroke:none"
             d="M 0,0 C 0.679,0.556 1.018,1.35 1.018,2.38 1.018,3.41 0.679,4.199 0,4.75 -0.678,5.299 -1.66,5.573 -2.948,5.573 h -3.458 v -6.407 h 3.458 c 1.288,0 2.27,0.277 2.948,0.834 m 1.078,-6.895 -3.07,4.374 c -0.38,-0.028 -0.679,-0.041 -0.896,-0.041 H -6.406 V -6.895 H -8.439 V 7.342 h 5.551 c 1.845,0 3.295,-0.441 4.353,-1.321 C 2.522,5.139 3.052,3.925 3.052,2.38 3.052,1.282 2.78,0.346 2.238,-0.427 1.695,-1.199 0.923,-1.763 -0.08,-2.115 l 3.376,-4.78 z" /></g><g
           transform="translate(547.5283,389.3857)"
           id="g110"><path
             id="path112"
             style="fill:#ffffff;fill-opacity:1;fill-rule:nonzero;stroke:none"
             d="m 0,0 c -1.146,0.631 -2.044,1.498 -2.694,2.604 -0.652,1.104 -0.977,2.348 -0.977,3.731 0,1.383 0.325,2.627 0.977,3.732 0.65,1.105 1.551,1.973 2.704,2.603 1.152,0.631 2.441,0.946 3.864,0.946 1.112,0 2.129,-0.186 3.051,-0.558 0.922,-0.374 1.709,-0.926 2.359,-1.659 L 7.963,10.118 C 6.892,11.243 5.556,11.807 3.956,11.807 2.898,11.807 1.942,11.568 1.088,11.094 0.234,10.619 -0.434,9.966 -0.915,9.132 -1.396,8.298 -1.637,7.365 -1.637,6.335 c 0,-1.03 0.241,-1.962 0.722,-2.796 0.481,-0.834 1.149,-1.488 2.003,-1.963 0.854,-0.474 1.81,-0.712 2.868,-0.712 1.586,0 2.921,0.57 4.007,1.709 L 9.284,1.291 C 8.634,0.56 7.844,0.003 6.915,-0.377 5.986,-0.756 4.966,-0.945 3.854,-0.945 2.431,-0.945 1.146,-0.631 0,0" /></g><g
           transform="translate(571.5576,402.8389)"
           id="g114"><path
             id="path116"
             style="fill:#ffffff;fill-opacity:1;fill-rule:nonzero;stroke:none"
             d="m 0,0 v -14.236 h -2.034 v 6.345 h -8.176 v -6.345 h -2.034 V 0 h 2.034 v -6.121 h 8.176 V 0 Z" /></g><g
           transform="translate(583.7803,393.7891)"
           id="g118"><path
             id="path120"
             style="fill:#ffffff;fill-opacity:1;fill-rule:nonzero;stroke:none"
             d="M 0,0 -3.071,6.976 -6.142,0 Z m 0.712,-1.627 h -7.566 l -1.566,-3.56 h -2.095 L -4.067,9.05 h 2.012 L 4.413,-5.187 H 2.278 Z" /></g><g
           transform="translate(602.1455,402.8389)"
           id="g122"><path
             id="path124"
             style="fill:#ffffff;fill-opacity:1;fill-rule:nonzero;stroke:none"
             d="M 0,0 V -14.236 H -1.668 L -10.21,-3.62 v -10.616 h -2.034 V 0 h 1.668 l 8.542,-10.616 0,10.616 z" /></g><g
           transform="translate(615.873,395.8027)"
           id="g126"><path
             id="path128"
             style="fill:#ffffff;fill-opacity:1;fill-rule:nonzero;stroke:none"
             d="m 0,0 h 1.953 v -5.553 c -0.706,-0.583 -1.526,-1.03 -2.462,-1.342 -0.935,-0.312 -1.911,-0.467 -2.928,-0.467 -1.437,0 -2.732,0.314 -3.884,0.945 -1.153,0.631 -2.058,1.498 -2.716,2.604 -0.657,1.104 -0.985,2.348 -0.985,3.731 0,1.383 0.328,2.631 0.985,3.742 0.658,1.112 1.566,1.98 2.725,2.604 1.16,0.623 2.464,0.935 3.916,0.935 1.139,0 2.172,-0.186 3.101,-0.558 C 0.634,6.267 1.424,5.722 2.074,5.002 L 0.813,3.742 C -0.325,4.84 -1.701,5.39 -3.315,5.39 -4.399,5.39 -5.373,5.155 -6.233,4.687 -7.095,4.22 -7.769,3.568 -8.257,2.734 -8.745,1.9 -8.989,0.962 -8.989,-0.082 c 0,-1.03 0.244,-1.962 0.732,-2.796 0.488,-0.834 1.162,-1.488 2.024,-1.963 0.86,-0.474 1.827,-0.712 2.898,-0.712 1.273,0 2.386,0.306 3.335,0.915 z" /></g><g
           transform="translate(631.6348,390.3721)"
           id="g130"><path
             id="path132"
             style="fill:#ffffff;fill-opacity:1;fill-rule:nonzero;stroke:none"
             d="M 0,0 V -1.77 H -10.332 V 12.467 H -0.284 V 10.698 H -8.298 V 6.325 h 7.139 V 4.597 H -8.298 V 0 Z" /></g></g></g><g
       id="g134"><g
         id="g136"><g
           id="g142"><g
             id="g144"><path
               id="path154"
               style="fill:url(#linearGradient152);stroke:none"
               d="m 557.269,605.33 v -19.281 c 0,-3.529 -2.88,-6.408 -6.409,-6.408 v 0 c -3.539,0 -6.409,2.879 -6.409,6.408 v 0 19.281 H 531.74 v -19.281 c 0,-3.529 -2.879,-6.408 -6.41,-6.408 v 0 c -3.54,0 -6.41,2.879 -6.41,6.408 v 0 19.281 H 506.5 v -19.281 c 0,-3.529 -2.88,-6.408 -6.41,-6.408 v 0 c -3.54,0 -6.41,2.879 -6.41,6.408 v 0 19.281 h -12.43 v -19.281 c 0,-3.529 -2.88,-6.408 -6.41,-6.408 v 0 c -3.541,0 -6.411,2.879 -6.411,6.408 v 0 19.281 h -12.88 v -19.281 c 0,-3.529 -2.87,-6.408 -6.409,-6.408 v 0 c -3.529,0 -6.409,2.879 -6.409,6.408 v 0 19.281 H 433.5 V 480.65 c 0,-4.6 3.731,-8.33 8.33,-8.33 v 0 h 116.34 c 4.599,0 8.33,3.73 8.33,8.33 v 0 124.68 z M 444.81,487.049 v 80.191 h 109.76 v -80.191 c 0,-2.17 -1.76,-3.929 -3.93,-3.929 v 0 h -101.9 c -2.17,0 -3.93,1.759 -3.93,3.929" /></g></g></g></g><g
       id="g156"><g
         id="g158"><g
           id="g164"><g
             id="g166"><path
               id="path176"
               style="fill:url(#linearGradient174);stroke:none"
               d="m 503.499,560.423 v -70.481 h 33.014 l 11.538,10.154 v 51.275 l -10.276,9.052 z m 9.094,-9.095 h 21.748 l 4.617,-4.066 v -43.054 l -5.877,-5.172 h -20.488 z" /></g></g></g></g><g
       id="g178"><g
         id="g180"><g
           id="g186"><g
             id="g188"><path
               id="path198"
               style="fill:url(#linearGradient196);stroke:none"
               d="m 451.948,560.423 v -67.471 c 0,-1.663 1.347,-3.01 3.009,-3.01 v 0 h 41.324 v 39.787 h -23.237 v -9.093 h 14.142 v -21.6 h -26.144 v 52.292 h 26.144 v -10.355 h 9.095 v 19.45 z" /></g></g></g></g><g
       id="g200"><g
         id="g202"><g
           id="g208"><g
             id="g210"><path
               id="path220"
               style="fill:url(#linearGradient218);stroke:none"
               d="m 445.732,608.15 v -22.096 c 0,-1.884 1.527,-3.41 3.41,-3.41 v 0 c 1.884,0 3.411,1.526 3.411,3.41 v 0 22.096 c 0,1.883 -1.527,3.41 -3.411,3.41 v 0 c -1.883,0 -3.41,-1.527 -3.41,-3.41" /></g></g></g></g><g
       id="g222"><g
         id="g224"><g
           id="g230"><g
             id="g232"><path
               id="path242"
               style="fill:url(#linearGradient240);stroke:none"
               d="m 471.425,608.15 v -22.096 c 0,-1.884 1.528,-3.41 3.412,-3.41 v 0 c 1.883,0 3.41,1.526 3.41,3.41 v 0 22.096 c 0,1.883 -1.527,3.41 -3.41,3.41 v 0 c -1.884,0 -3.412,-1.527 -3.412,-3.41" /></g></g></g></g><g
       id="g244"><g
         id="g246"><g
           id="g252"><g
             id="g254"><path
               id="path264"
               style="fill:url(#linearGradient262);stroke:none"
               d="m 496.678,608.15 v -22.096 c 0,-1.884 1.527,-3.41 3.41,-3.41 v 0 c 1.883,0 3.411,1.526 3.411,3.41 v 0 22.096 c 0,1.883 -1.528,3.41 -3.411,3.41 v 0 c -1.883,0 -3.41,-1.527 -3.41,-3.41" /></g></g></g></g><g
       id="g266"><g
         id="g268"><g
           id="g274"><g
             id="g276"><path
               id="path286"
               style="fill:url(#linearGradient284);stroke:none"
               d="m 521.919,608.15 v -22.096 c 0,-1.884 1.527,-3.41 3.41,-3.41 v 0 c 1.884,0 3.411,1.526 3.411,3.41 v 0 22.096 c 0,1.883 -1.527,3.41 -3.411,3.41 v 0 c -1.883,0 -3.41,-1.527 -3.41,-3.41" /></g></g></g></g><g
       id="g288"><g
         id="g290"><g
           id="g296"><g
             id="g298"><path
               id="path308"
               style="fill:url(#linearGradient306);stroke:none"
               d="m 547.447,608.15 v -22.096 c 0,-1.884 1.527,-3.41 3.411,-3.41 v 0 c 1.883,0 3.41,1.526 3.41,3.41 v 0 22.096 c 0,1.883 -1.527,3.41 -3.41,3.41 v 0 c -1.884,0 -3.411,-1.527 -3.411,-3.41" /></g></g></g></g></g></svg>