<?xml version="1.0" encoding="UTF-8" standalone="no"?>
<svg
   xmlns:dc="http://purl.org/dc/elements/1.1/"
   xmlns:cc="http://creativecommons.org/ns#"
   xmlns:rdf="http://www.w3.org/1999/02/22-rdf-syntax-ns#"
   xmlns:svg="http://www.w3.org/2000/svg"
   xmlns="http://www.w3.org/2000/svg"
   xmlns:sodipodi="http://sodipodi.sourceforge.net/DTD/sodipodi-0.dtd"
   xmlns:inkscape="http://www.inkscape.org/namespaces/inkscape"
   version="1.1"
   id="svg2"
   xml:space="preserve"
   width="1333.3333"
   height="1333.3333"
   viewBox="0 0 1333.3333 1333.3333"
   sodipodi:docname="38982_Grader Days_LOGO_SP_GR.ai"><metadata
     id="metadata8"><rdf:RDF><cc:Work
         rdf:about=""><dc:format>image/svg+xml</dc:format><dc:type
           rdf:resource="http://purl.org/dc/dcmitype/StillImage" /></cc:Work></rdf:RDF></metadata><defs
     id="defs6"><linearGradient
       x1="0"
       y1="0"
       x2="1"
       y2="0"
       gradientUnits="userSpaceOnUse"
       gradientTransform="matrix(348.29111,-144.19937,-144.19937,-348.29111,318.73895,438.13583)"
       spreadMethod="pad"
       id="linearGradient30"><stop
         style="stop-opacity:1;stop-color:#d66c65"
         offset="0"
         id="stop24" /><stop
         style="stop-opacity:1;stop-color:#e3d512"
         offset="0.5"
         id="stop26" /><stop
         style="stop-opacity:1;stop-color:#056f09"
         offset="1"
         id="stop28" /></linearGradient><linearGradient
       x1="0"
       y1="0"
       x2="1"
       y2="0"
       gradientUnits="userSpaceOnUse"
       gradientTransform="matrix(348.29111,-144.19937,-144.19937,-348.29111,323.43149,449.46991)"
       spreadMethod="pad"
       id="linearGradient52"><stop
         style="stop-opacity:1;stop-color:#d66c65"
         offset="0"
         id="stop46" /><stop
         style="stop-opacity:1;stop-color:#e3d512"
         offset="0.5"
         id="stop48" /><stop
         style="stop-opacity:1;stop-color:#056f09"
         offset="1"
         id="stop50" /></linearGradient><linearGradient
       x1="0"
       y1="0"
       x2="1"
       y2="0"
       gradientUnits="userSpaceOnUse"
       gradientTransform="matrix(348.29111,-144.19937,-144.19937,-348.29111,328.63174,462.03033)"
       spreadMethod="pad"
       id="linearGradient74"><stop
         style="stop-opacity:1;stop-color:#d66c65"
         offset="0"
         id="stop68" /><stop
         style="stop-opacity:1;stop-color:#e3d512"
         offset="0.5"
         id="stop70" /><stop
         style="stop-opacity:1;stop-color:#056f09"
         offset="1"
         id="stop72" /></linearGradient><linearGradient
       x1="0"
       y1="0"
       x2="1"
       y2="0"
       gradientUnits="userSpaceOnUse"
       gradientTransform="matrix(348.29111,-144.19937,-144.19937,-348.29111,334.77777,476.87512)"
       spreadMethod="pad"
       id="linearGradient96"><stop
         style="stop-opacity:1;stop-color:#d66c65"
         offset="0"
         id="stop90" /><stop
         style="stop-opacity:1;stop-color:#e3d512"
         offset="0.5"
         id="stop92" /><stop
         style="stop-opacity:1;stop-color:#056f09"
         offset="1"
         id="stop94" /></linearGradient><linearGradient
       x1="0"
       y1="0"
       x2="1"
       y2="0"
       gradientUnits="userSpaceOnUse"
       gradientTransform="matrix(348.29111,-144.19937,-144.19937,-348.29111,341.33078,492.70291)"
       spreadMethod="pad"
       id="linearGradient118"><stop
         style="stop-opacity:1;stop-color:#d66c65"
         offset="0"
         id="stop112" /><stop
         style="stop-opacity:1;stop-color:#e3d512"
         offset="0.5"
         id="stop114" /><stop
         style="stop-opacity:1;stop-color:#056f09"
         offset="1"
         id="stop116" /></linearGradient><linearGradient
       x1="0"
       y1="0"
       x2="1"
       y2="0"
       gradientUnits="userSpaceOnUse"
       gradientTransform="matrix(348.29111,-144.19937,-144.19937,-348.29111,345.90717,503.75644)"
       spreadMethod="pad"
       id="linearGradient140"><stop
         style="stop-opacity:1;stop-color:#d66c65"
         offset="0"
         id="stop134" /><stop
         style="stop-opacity:1;stop-color:#e3d512"
         offset="0.5"
         id="stop136" /><stop
         style="stop-opacity:1;stop-color:#056f09"
         offset="1"
         id="stop138" /></linearGradient><linearGradient
       x1="0"
       y1="0"
       x2="1"
       y2="0"
       gradientUnits="userSpaceOnUse"
       gradientTransform="matrix(348.29111,-144.19937,-144.19937,-348.29111,353.41296,521.8855)"
       spreadMethod="pad"
       id="linearGradient162"><stop
         style="stop-opacity:1;stop-color:#d66c65"
         offset="0"
         id="stop156" /><stop
         style="stop-opacity:1;stop-color:#e3d512"
         offset="0.5"
         id="stop158" /><stop
         style="stop-opacity:1;stop-color:#056f09"
         offset="1"
         id="stop160" /></linearGradient><linearGradient
       x1="0"
       y1="0"
       x2="1"
       y2="0"
       gradientUnits="userSpaceOnUse"
       gradientTransform="matrix(348.29111,-144.19937,-144.19937,-348.29111,358.87625,535.08124)"
       spreadMethod="pad"
       id="linearGradient184"><stop
         style="stop-opacity:1;stop-color:#d66c65"
         offset="0"
         id="stop178" /><stop
         style="stop-opacity:1;stop-color:#e3d512"
         offset="0.5"
         id="stop180" /><stop
         style="stop-opacity:1;stop-color:#056f09"
         offset="1"
         id="stop182" /></linearGradient><linearGradient
       x1="0"
       y1="0"
       x2="1"
       y2="0"
       gradientUnits="userSpaceOnUse"
       gradientTransform="matrix(348.29111,-144.19937,-144.19937,-348.29111,365.93838,552.13873)"
       spreadMethod="pad"
       id="linearGradient206"><stop
         style="stop-opacity:1;stop-color:#d66c65"
         offset="0"
         id="stop200" /><stop
         style="stop-opacity:1;stop-color:#e3d512"
         offset="0.5"
         id="stop202" /><stop
         style="stop-opacity:1;stop-color:#056f09"
         offset="1"
         id="stop204" /></linearGradient><linearGradient
       x1="0"
       y1="0"
       x2="1"
       y2="0"
       gradientUnits="userSpaceOnUse"
       gradientTransform="matrix(348.29111,-144.19937,-144.19937,-348.29111,369.87085,561.63696)"
       spreadMethod="pad"
       id="linearGradient228"><stop
         style="stop-opacity:1;stop-color:#d66c65"
         offset="0"
         id="stop222" /><stop
         style="stop-opacity:1;stop-color:#e3d512"
         offset="0.5"
         id="stop224" /><stop
         style="stop-opacity:1;stop-color:#056f09"
         offset="1"
         id="stop226" /></linearGradient><linearGradient
       x1="0"
       y1="0"
       x2="1"
       y2="0"
       gradientUnits="userSpaceOnUse"
       gradientTransform="matrix(244.14709,-38.529461,-38.529461,-244.14709,371.51556,396.86374)"
       spreadMethod="pad"
       id="linearGradient250"><stop
         style="stop-opacity:1;stop-color:#d66c65"
         offset="0"
         id="stop244" /><stop
         style="stop-opacity:1;stop-color:#e3d512"
         offset="0.5"
         id="stop246" /><stop
         style="stop-opacity:1;stop-color:#056f09"
         offset="1"
         id="stop248" /></linearGradient><linearGradient
       x1="0"
       y1="0"
       x2="1"
       y2="0"
       gradientUnits="userSpaceOnUse"
       gradientTransform="matrix(244.14709,-38.529461,-38.529461,-244.14709,371.67468,397.87204)"
       spreadMethod="pad"
       id="linearGradient272"><stop
         style="stop-opacity:1;stop-color:#d66c65"
         offset="0"
         id="stop266" /><stop
         style="stop-opacity:1;stop-color:#e3d512"
         offset="0.5"
         id="stop268" /><stop
         style="stop-opacity:1;stop-color:#056f09"
         offset="1"
         id="stop270" /></linearGradient><linearGradient
       x1="0"
       y1="0"
       x2="1"
       y2="0"
       gradientUnits="userSpaceOnUse"
       gradientTransform="matrix(244.14709,-38.529461,-38.529461,-244.14709,371.89792,399.28653)"
       spreadMethod="pad"
       id="linearGradient294"><stop
         style="stop-opacity:1;stop-color:#d66c65"
         offset="0"
         id="stop288" /><stop
         style="stop-opacity:1;stop-color:#e3d512"
         offset="0.5"
         id="stop290" /><stop
         style="stop-opacity:1;stop-color:#056f09"
         offset="1"
         id="stop292" /></linearGradient><linearGradient
       x1="0"
       y1="0"
       x2="1"
       y2="0"
       gradientUnits="userSpaceOnUse"
       gradientTransform="matrix(244.14709,-38.529461,-38.529461,-244.14709,372.28571,401.7439)"
       spreadMethod="pad"
       id="linearGradient316"><stop
         style="stop-opacity:1;stop-color:#d66c65"
         offset="0"
         id="stop310" /><stop
         style="stop-opacity:1;stop-color:#e3d512"
         offset="0.5"
         id="stop312" /><stop
         style="stop-opacity:1;stop-color:#056f09"
         offset="1"
         id="stop314" /></linearGradient><linearGradient
       x1="0"
       y1="0"
       x2="1"
       y2="0"
       gradientUnits="userSpaceOnUse"
       gradientTransform="matrix(244.14709,-38.529461,-38.529461,-244.14709,372.51431,403.19247)"
       spreadMethod="pad"
       id="linearGradient338"><stop
         style="stop-opacity:1;stop-color:#d66c65"
         offset="0"
         id="stop332" /><stop
         style="stop-opacity:1;stop-color:#e3d512"
         offset="0.5"
         id="stop334" /><stop
         style="stop-opacity:1;stop-color:#056f09"
         offset="1"
         id="stop336" /></linearGradient><linearGradient
       x1="0"
       y1="0"
       x2="1"
       y2="0"
       gradientUnits="userSpaceOnUse"
       gradientTransform="matrix(244.14709,-38.529461,-38.529461,-244.14709,372.84048,405.25931)"
       spreadMethod="pad"
       id="linearGradient360"><stop
         style="stop-opacity:1;stop-color:#d66c65"
         offset="0"
         id="stop354" /><stop
         style="stop-opacity:1;stop-color:#e3d512"
         offset="0.5"
         id="stop356" /><stop
         style="stop-opacity:1;stop-color:#056f09"
         offset="1"
         id="stop358" /></linearGradient><linearGradient
       x1="0"
       y1="0"
       x2="1"
       y2="0"
       gradientUnits="userSpaceOnUse"
       gradientTransform="matrix(244.14709,-38.529461,-38.529461,-244.14709,373.12415,407.05679)"
       spreadMethod="pad"
       id="linearGradient382"><stop
         style="stop-opacity:1;stop-color:#d66c65"
         offset="0"
         id="stop376" /><stop
         style="stop-opacity:1;stop-color:#e3d512"
         offset="0.5"
         id="stop378" /><stop
         style="stop-opacity:1;stop-color:#056f09"
         offset="1"
         id="stop380" /></linearGradient><linearGradient
       x1="0"
       y1="0"
       x2="1"
       y2="0"
       gradientUnits="userSpaceOnUse"
       gradientTransform="matrix(244.14709,-38.529461,-38.529461,-244.14709,373.35345,408.50983)"
       spreadMethod="pad"
       id="linearGradient404"><stop
         style="stop-opacity:1;stop-color:#d66c65"
         offset="0"
         id="stop398" /><stop
         style="stop-opacity:1;stop-color:#e3d512"
         offset="0.5"
         id="stop400" /><stop
         style="stop-opacity:1;stop-color:#056f09"
         offset="1"
         id="stop402" /></linearGradient><linearGradient
       x1="0"
       y1="0"
       x2="1"
       y2="0"
       gradientUnits="userSpaceOnUse"
       gradientTransform="matrix(244.14709,-38.529461,-38.529461,-244.14709,373.67963,410.57663)"
       spreadMethod="pad"
       id="linearGradient426"><stop
         style="stop-opacity:1;stop-color:#d66c65"
         offset="0"
         id="stop420" /><stop
         style="stop-opacity:1;stop-color:#e3d512"
         offset="0.5"
         id="stop422" /><stop
         style="stop-opacity:1;stop-color:#056f09"
         offset="1"
         id="stop424" /></linearGradient><linearGradient
       x1="0"
       y1="0"
       x2="1"
       y2="0"
       gradientUnits="userSpaceOnUse"
       gradientTransform="matrix(244.14709,-38.529461,-38.529461,-244.14709,374.17853,413.73795)"
       spreadMethod="pad"
       id="linearGradient448"><stop
         style="stop-opacity:1;stop-color:#d66c65"
         offset="0"
         id="stop442" /><stop
         style="stop-opacity:1;stop-color:#e3d512"
         offset="0.5"
         id="stop444" /><stop
         style="stop-opacity:1;stop-color:#056f09"
         offset="1"
         id="stop446" /></linearGradient><linearGradient
       x1="0"
       y1="0"
       x2="1"
       y2="0"
       gradientUnits="userSpaceOnUse"
       gradientTransform="matrix(244.14709,-38.529461,-38.529461,-244.14709,374.45291,415.47665)"
       spreadMethod="pad"
       id="linearGradient470"><stop
         style="stop-opacity:1;stop-color:#d66c65"
         offset="0"
         id="stop464" /><stop
         style="stop-opacity:1;stop-color:#e3d512"
         offset="0.5"
         id="stop466" /><stop
         style="stop-opacity:1;stop-color:#056f09"
         offset="1"
         id="stop468" /></linearGradient><linearGradient
       x1="0"
       y1="0"
       x2="1"
       y2="0"
       gradientUnits="userSpaceOnUse"
       gradientTransform="matrix(244.14709,-38.529461,-38.529461,-244.14709,374.89752,418.29404)"
       spreadMethod="pad"
       id="linearGradient492"><stop
         style="stop-opacity:1;stop-color:#d66c65"
         offset="0"
         id="stop486" /><stop
         style="stop-opacity:1;stop-color:#e3d512"
         offset="0.5"
         id="stop488" /><stop
         style="stop-opacity:1;stop-color:#056f09"
         offset="1"
         id="stop490" /></linearGradient><linearGradient
       x1="0"
       y1="0"
       x2="1"
       y2="0"
       gradientUnits="userSpaceOnUse"
       gradientTransform="matrix(244.14709,-38.529461,-38.529461,-244.14709,375.16034,419.95932)"
       spreadMethod="pad"
       id="linearGradient514"><stop
         style="stop-opacity:1;stop-color:#d66c65"
         offset="0"
         id="stop508" /><stop
         style="stop-opacity:1;stop-color:#e3d512"
         offset="0.5"
         id="stop510" /><stop
         style="stop-opacity:1;stop-color:#056f09"
         offset="1"
         id="stop512" /></linearGradient><linearGradient
       x1="0"
       y1="0"
       x2="1"
       y2="0"
       gradientUnits="userSpaceOnUse"
       gradientTransform="matrix(244.14709,-38.529461,-38.529461,-244.14709,375.71072,423.4469)"
       spreadMethod="pad"
       id="linearGradient536"><stop
         style="stop-opacity:1;stop-color:#d66c65"
         offset="0"
         id="stop530" /><stop
         style="stop-opacity:1;stop-color:#e3d512"
         offset="0.5"
         id="stop532" /><stop
         style="stop-opacity:1;stop-color:#056f09"
         offset="1"
         id="stop534" /></linearGradient><linearGradient
       x1="0"
       y1="0"
       x2="1"
       y2="0"
       gradientUnits="userSpaceOnUse"
       gradientTransform="matrix(244.14709,-38.529461,-38.529461,-244.14709,376.05176,425.60797)"
       spreadMethod="pad"
       id="linearGradient558"><stop
         style="stop-opacity:1;stop-color:#d66c65"
         offset="0"
         id="stop552" /><stop
         style="stop-opacity:1;stop-color:#e3d512"
         offset="0.5"
         id="stop554" /><stop
         style="stop-opacity:1;stop-color:#056f09"
         offset="1"
         id="stop556" /></linearGradient><linearGradient
       x1="0"
       y1="0"
       x2="1"
       y2="0"
       gradientUnits="userSpaceOnUse"
       gradientTransform="matrix(244.14709,-38.529461,-38.529461,-244.14709,376.34482,427.46497)"
       spreadMethod="pad"
       id="linearGradient580"><stop
         style="stop-opacity:1;stop-color:#d66c65"
         offset="0"
         id="stop574" /><stop
         style="stop-opacity:1;stop-color:#e3d512"
         offset="0.5"
         id="stop576" /><stop
         style="stop-opacity:1;stop-color:#056f09"
         offset="1"
         id="stop578" /></linearGradient><linearGradient
       x1="0"
       y1="0"
       x2="1"
       y2="0"
       gradientUnits="userSpaceOnUse"
       gradientTransform="matrix(244.14709,-38.529461,-38.529461,-244.14709,376.79504,430.31784)"
       spreadMethod="pad"
       id="linearGradient602"><stop
         style="stop-opacity:1;stop-color:#d66c65"
         offset="0"
         id="stop596" /><stop
         style="stop-opacity:1;stop-color:#e3d512"
         offset="0.5"
         id="stop598" /><stop
         style="stop-opacity:1;stop-color:#056f09"
         offset="1"
         id="stop600" /></linearGradient><linearGradient
       x1="0"
       y1="0"
       x2="1"
       y2="0"
       gradientUnits="userSpaceOnUse"
       gradientTransform="matrix(244.14709,-38.529461,-38.529461,-244.14709,377.19476,432.85071)"
       spreadMethod="pad"
       id="linearGradient624"><stop
         style="stop-opacity:1;stop-color:#d66c65"
         offset="0"
         id="stop618" /><stop
         style="stop-opacity:1;stop-color:#e3d512"
         offset="0.5"
         id="stop620" /><stop
         style="stop-opacity:1;stop-color:#056f09"
         offset="1"
         id="stop622" /></linearGradient><linearGradient
       x1="0"
       y1="0"
       x2="1"
       y2="0"
       gradientUnits="userSpaceOnUse"
       gradientTransform="matrix(244.14709,-38.529461,-38.529461,-244.14709,377.5314,434.98383)"
       spreadMethod="pad"
       id="linearGradient646"><stop
         style="stop-opacity:1;stop-color:#d66c65"
         offset="0"
         id="stop640" /><stop
         style="stop-opacity:1;stop-color:#e3d512"
         offset="0.5"
         id="stop642" /><stop
         style="stop-opacity:1;stop-color:#056f09"
         offset="1"
         id="stop644" /></linearGradient><linearGradient
       x1="0"
       y1="0"
       x2="1"
       y2="0"
       gradientUnits="userSpaceOnUse"
       gradientTransform="matrix(102.40887,-111.84588,-111.84588,-102.40887,451.62515,594.20404)"
       spreadMethod="pad"
       id="linearGradient668"><stop
         style="stop-opacity:1;stop-color:#d66c65"
         offset="0"
         id="stop662" /><stop
         style="stop-opacity:1;stop-color:#e3d512"
         offset="0.5"
         id="stop664" /><stop
         style="stop-opacity:1;stop-color:#056f09"
         offset="1"
         id="stop666" /></linearGradient><linearGradient
       x1="0"
       y1="0"
       x2="1"
       y2="0"
       gradientUnits="userSpaceOnUse"
       gradientTransform="matrix(102.40776,-111.84466,-111.84466,-102.40776,455.32965,597.59351)"
       spreadMethod="pad"
       id="linearGradient690"><stop
         style="stop-opacity:1;stop-color:#d66c65"
         offset="0"
         id="stop684" /><stop
         style="stop-opacity:1;stop-color:#e3d512"
         offset="0.5"
         id="stop686" /><stop
         style="stop-opacity:1;stop-color:#056f09"
         offset="1"
         id="stop688" /></linearGradient><linearGradient
       x1="0"
       y1="0"
       x2="1"
       y2="0"
       gradientUnits="userSpaceOnUse"
       gradientTransform="matrix(102.40776,-111.84466,-111.84466,-102.40776,429.94058,574.34668)"
       spreadMethod="pad"
       id="linearGradient712"><stop
         style="stop-opacity:1;stop-color:#d66c65"
         offset="0"
         id="stop706" /><stop
         style="stop-opacity:1;stop-color:#e3d512"
         offset="0.5"
         id="stop708" /><stop
         style="stop-opacity:1;stop-color:#056f09"
         offset="1"
         id="stop710" /></linearGradient><linearGradient
       x1="0"
       y1="0"
       x2="1"
       y2="0"
       gradientUnits="userSpaceOnUse"
       gradientTransform="matrix(102.40776,-111.84466,-111.84466,-102.40776,451.71936,594.28784)"
       spreadMethod="pad"
       id="linearGradient734"><stop
         style="stop-opacity:1;stop-color:#d66c65"
         offset="0"
         id="stop728" /><stop
         style="stop-opacity:1;stop-color:#e3d512"
         offset="0.5"
         id="stop730" /><stop
         style="stop-opacity:1;stop-color:#056f09"
         offset="1"
         id="stop732" /></linearGradient><linearGradient
       x1="0"
       y1="0"
       x2="1"
       y2="0"
       gradientUnits="userSpaceOnUse"
       gradientTransform="matrix(102.40776,-111.84466,-111.84466,-102.40776,465.69565,607.0849)"
       spreadMethod="pad"
       id="linearGradient756"><stop
         style="stop-opacity:1;stop-color:#d66c65"
         offset="0"
         id="stop750" /><stop
         style="stop-opacity:1;stop-color:#e3d512"
         offset="0.5"
         id="stop752" /><stop
         style="stop-opacity:1;stop-color:#056f09"
         offset="1"
         id="stop754" /></linearGradient><linearGradient
       x1="0"
       y1="0"
       x2="1"
       y2="0"
       gradientUnits="userSpaceOnUse"
       gradientTransform="matrix(102.40776,-111.84466,-111.84466,-102.40776,479.43161,619.66187)"
       spreadMethod="pad"
       id="linearGradient778"><stop
         style="stop-opacity:1;stop-color:#d66c65"
         offset="0"
         id="stop772" /><stop
         style="stop-opacity:1;stop-color:#e3d512"
         offset="0.5"
         id="stop774" /><stop
         style="stop-opacity:1;stop-color:#056f09"
         offset="1"
         id="stop776" /></linearGradient><linearGradient
       x1="0"
       y1="0"
       x2="1"
       y2="0"
       gradientUnits="userSpaceOnUse"
       gradientTransform="matrix(102.40776,-111.84466,-111.84466,-102.40776,493.16183,632.23364)"
       spreadMethod="pad"
       id="linearGradient800"><stop
         style="stop-opacity:1;stop-color:#d66c65"
         offset="0"
         id="stop794" /><stop
         style="stop-opacity:1;stop-color:#e3d512"
         offset="0.5"
         id="stop796" /><stop
         style="stop-opacity:1;stop-color:#056f09"
         offset="1"
         id="stop798" /></linearGradient><linearGradient
       x1="0"
       y1="0"
       x2="1"
       y2="0"
       gradientUnits="userSpaceOnUse"
       gradientTransform="matrix(102.40776,-111.84466,-111.84466,-102.40776,507.04785,644.948)"
       spreadMethod="pad"
       id="linearGradient822"><stop
         style="stop-opacity:1;stop-color:#d66c65"
         offset="0"
         id="stop816" /><stop
         style="stop-opacity:1;stop-color:#e3d512"
         offset="0.5"
         id="stop818" /><stop
         style="stop-opacity:1;stop-color:#056f09"
         offset="1"
         id="stop820" /></linearGradient></defs><sodipodi:namedview
     pagecolor="#ffffff"
     bordercolor="#666666"
     borderopacity="1"
     objecttolerance="10"
     gridtolerance="10"
     guidetolerance="10"
     inkscape:pageopacity="0"
     inkscape:pageshadow="2"
     inkscape:window-width="640"
     inkscape:window-height="480"
     id="namedview4" /><g
     id="g10"
     inkscape:groupmode="layer"
     inkscape:label="38982_Grader Days_LOGO_SP_GR"
     transform="matrix(1.3333333,0,0,-1.3333333,0,1333.3333)"><g
       id="g12"><g
         id="g14"><g
           id="g20"><g
             id="g22"><path
               d="m 313.937,448.361 c -3.873,-3.784 -5.811,-8.504 -5.811,-14.16 v 0 c 0,-5.655 1.901,-10.339 5.702,-14.049 v 0 c 3.801,-3.71 8.503,-5.566 14.105,-5.566 v 0 c 6.693,0 11.93,2.109 15.715,6.329 v 0 13.532 h -8.567 v -10.476 c -1.964,-1.128 -4.42,-1.692 -7.366,-1.692 v 0 c -2.947,0 -5.484,1.082 -7.612,3.247 v 0 c -2.128,2.163 -3.192,5.047 -3.192,8.648 v 0 c 0,3.601 1.109,6.502 3.328,8.704 v 0 c 2.219,2.2 4.947,3.301 8.185,3.301 v 0 c 1.673,0 3.228,-0.282 4.665,-0.845 v 0 c 1.436,-0.566 3.01,-1.593 4.72,-3.083 v 0 l 4.42,6.383 c -4.038,3.602 -8.794,5.401 -14.269,5.401 v 0 c -5.475,0 -10.149,-1.89 -14.023,-5.674"
               style="fill:url(#linearGradient30);stroke:none"
               id="path32" /></g></g></g></g><g
       id="g34"><g
         id="g36"><g
           id="g42"><g
             id="g44"><path
               d="m 350.141,453.163 v -38.141 h 8.512 v 12.168 h 5.892 l 8.458,-12.168 h 10.476 l -9.657,13.642 c 4.837,1.782 7.257,5.729 7.257,11.84 v 0 c 0,4.437 -1.265,7.657 -3.793,9.658 v 0 c -2.528,2 -6.757,3.001 -12.686,3.001 v 0 z m 8.512,-7.312 h 6.383 c 2.728,0 4.639,-0.382 5.73,-1.145 v 0 c 1.091,-0.765 1.637,-2.175 1.637,-4.23 v 0 c 0,-2.055 -0.528,-3.555 -1.582,-4.501 v 0 c -1.056,-0.946 -3.039,-1.418 -5.948,-1.418 v 0 h -6.22 z"
               style="fill:url(#linearGradient52);stroke:none"
               id="path54" /></g></g></g></g><g
       id="g56"><g
         id="g58"><g
           id="g64"><g
             id="g66"><path
               d="m 400.23,453.163 -16.478,-38.141 h 9.058 l 3.545,8.24 h 15.988 l 3.547,-8.24 h 9.058 l -16.479,38.141 z m 4.147,-11.349 4.747,-11.077 h -9.549 z"
               style="fill:url(#linearGradient74);stroke:none"
               id="path76" /></g></g></g></g><g
       id="g78"><g
         id="g80"><g
           id="g86"><g
             id="g88"><path
               d="m 428.276,453.163 v -38.141 h 13.041 c 7.274,0 12.686,1.728 16.232,5.184 v 0 c 3.547,3.456 5.32,8.148 5.32,14.078 v 0 c 0,5.928 -1.819,10.558 -5.456,13.887 v 0 c -3.638,3.328 -8.858,4.992 -15.66,4.992 v 0 z m 8.512,-7.42 h 4.747 c 4.329,0 7.538,-1.011 9.63,-3.029 v 0 c 2.092,-2.019 3.138,-4.903 3.138,-8.649 v 0 c 0,-3.747 -1.046,-6.602 -3.138,-8.565 v 0 c -2.092,-1.965 -5.084,-2.948 -8.975,-2.948 v 0 h -5.402 z"
               style="fill:url(#linearGradient96);stroke:none"
               id="path98" /></g></g></g></g><g
       id="g100"><g
         id="g102"><g
           id="g108"><g
             id="g110"><path
               d="m 469.144,453.163 v -38.141 h 28.1 v 7.53 h -19.588 v 7.913 h 17.078 v 7.256 h -17.078 v 7.857 h 18.988 v 7.585 z"
               style="fill:url(#linearGradient118);stroke:none"
               id="path120" /></g></g></g></g><g
       id="g122"><g
         id="g124"><g
           id="g130"><g
             id="g132"><path
               d="m 503.737,453.163 v -38.141 h 8.512 v 12.168 h 5.893 l 8.458,-12.168 h 10.476 l -9.658,13.642 c 4.837,1.782 7.257,5.729 7.257,11.84 v 0 c 0,4.437 -1.265,7.657 -3.792,9.658 v 0 c -2.529,2 -6.757,3.001 -12.686,3.001 v 0 z m 8.512,-7.312 h 6.384 c 2.728,0 4.638,-0.382 5.729,-1.145 v 0 c 1.091,-0.765 1.638,-2.175 1.638,-4.23 v 0 c 0,-2.055 -0.529,-3.555 -1.583,-4.501 v 0 c -1.055,-0.946 -3.038,-1.418 -5.948,-1.418 v 0 h -6.22 z"
               style="fill:url(#linearGradient140);stroke:none"
               id="path142" /></g></g></g></g><g
       id="g144"><g
         id="g146"><g
           id="g152"><g
             id="g154"><path
               d="m 555.627,453.163 v -38.141 h 13.041 c 7.274,0 12.685,1.728 16.232,5.184 v 0 c 3.547,3.456 5.32,8.148 5.32,14.078 v 0 c 0,5.928 -1.82,10.558 -5.457,13.887 v 0 c -3.638,3.328 -8.858,4.992 -15.659,4.992 v 0 z m 8.512,-7.42 h 4.746 c 4.329,0 7.539,-1.011 9.631,-3.029 v 0 c 2.092,-2.019 3.138,-4.903 3.138,-8.649 v 0 c 0,-3.747 -1.046,-6.602 -3.138,-8.565 v 0 c -2.092,-1.965 -5.084,-2.948 -8.975,-2.948 v 0 h -5.402 z"
               style="fill:url(#linearGradient162);stroke:none"
               id="path164" /></g></g></g></g><g
       id="g166"><g
         id="g168"><g
           id="g174"><g
             id="g176"><path
               d="m 606.918,453.163 -16.479,-38.141 h 9.057 l 3.547,8.24 h 15.988 l 3.547,-8.24 h 9.056 l -16.478,38.141 z m 4.146,-11.349 4.747,-11.077 h -9.548 z"
               style="fill:url(#linearGradient184);stroke:none"
               id="path186" /></g></g></g></g><g
       id="g188"><g
         id="g190"><g
           id="g196"><g
             id="g198"><path
               d="m 652.696,453.163 -8.239,-14.186 -8.239,14.186 h -9.221 l 13.204,-23.08 v -15.061 h 8.513 v 15.061 l 13.204,23.08 z"
               style="fill:url(#linearGradient206);stroke:none"
               id="path208" /></g></g></g></g><g
       id="g210"><g
         id="g212"><g
           id="g218"><g
             id="g220"><path
               d="m 667.129,451.089 c -2.601,-1.964 -3.901,-4.756 -3.901,-8.375 v 0 c 0,-3.619 1.028,-6.274 3.082,-7.967 v 0 c 2.055,-1.69 5.302,-3.065 9.74,-4.119 v 0 c 2.801,-0.692 4.674,-1.373 5.621,-2.047 v 0 c 0.945,-0.672 1.418,-1.581 1.418,-2.727 v 0 c 0,-1.147 -0.446,-2.057 -1.337,-2.728 v 0 c -0.892,-0.675 -2.119,-1.01 -3.683,-1.01 v 0 c -3.492,0 -7.294,1.801 -11.404,5.403 v 0 l -5.074,-6.221 c 4.837,-4.475 10.276,-6.712 16.314,-6.712 v 0 c 4.183,0 7.557,1.065 10.122,3.192 v 0 c 2.565,2.128 3.847,4.902 3.847,8.322 v 0 c 0,3.418 -1.001,6.019 -3.001,7.802 v 0 c -2.001,1.782 -4.812,3.118 -8.43,4.01 v 0 c -3.62,0.891 -5.93,1.665 -6.931,2.318 v 0 c -1,0.656 -1.499,1.539 -1.499,2.648 v 0 c 0,1.109 0.409,2 1.227,2.672 v 0 c 0.819,0.674 1.937,1.01 3.356,1.01 v 0 c 3.528,0 6.948,-1.254 10.258,-3.764 v 0 l 4.311,6.219 c -1.893,1.601 -4.111,2.838 -6.657,3.712 v 0 c -2.547,0.873 -5.094,1.308 -7.64,1.308 v 0 c -3.892,0 -7.138,-0.981 -9.739,-2.946"
               style="fill:url(#linearGradient228);stroke:none"
               id="path230" /></g></g></g></g><g
       id="g232"><g
         id="g234"><g
           id="g240"><g
             id="g242"><path
               d="m 380.852,402.839 -5.165,-11.694 -5.126,11.694 h -2.196 l 6.264,-14.236 h 2.014 l 6.243,14.236 z"
               style="fill:url(#linearGradient250);stroke:none"
               id="path252" /></g></g></g></g><g
       id="g254"><g
         id="g256"><g
           id="g262"><g
             id="g264"><path
               d="m 384.289,388.603 h 2.033 v 14.236 h -2.033 z"
               style="fill:url(#linearGradient272);stroke:none"
               id="path274" /></g></g></g></g><g
       id="g276"><g
         id="g278"><g
           id="g284"><g
             id="g286"><path
               d="m 391.652,402.453 c -0.813,-0.366 -1.421,-0.854 -1.821,-1.464 v 0 c -0.4,-0.61 -0.6,-1.295 -0.6,-2.054 v 0 c 0,-0.908 0.234,-1.631 0.702,-2.166 v 0 c 0.468,-0.536 1.031,-0.933 1.688,-1.191 v 0 c 0.658,-0.257 1.522,-0.515 2.593,-0.772 v 0 c 0.854,-0.204 1.515,-0.386 1.983,-0.549 v 0 c 0.468,-0.162 0.861,-0.396 1.18,-0.701 v 0 c 0.319,-0.306 0.478,-0.702 0.478,-1.191 v 0 c 0,-0.665 -0.292,-1.196 -0.875,-1.597 v 0 c -0.583,-0.399 -1.464,-0.599 -2.643,-0.599 v 0 c -0.896,0 -1.767,0.152 -2.614,0.458 v 0 c -0.848,0.304 -1.542,0.701 -2.085,1.19 v 0 l -0.753,-1.587 c 0.57,-0.529 1.353,-0.959 2.349,-1.292 v 0 c 0.998,-0.332 2.031,-0.498 3.103,-0.498 v 0 c 1.206,0 2.223,0.179 3.05,0.539 v 0 c 0.827,0.36 1.444,0.848 1.851,1.464 v 0 c 0.406,0.618 0.61,1.299 0.61,2.044 v 0 c 0,0.895 -0.235,1.608 -0.702,2.136 v 0 c -0.468,0.528 -1.026,0.922 -1.678,1.18 v 0 c -0.651,0.256 -1.512,0.515 -2.583,0.772 v 0 c -0.827,0.19 -1.481,0.369 -1.962,0.539 v 0 c -0.482,0.169 -0.885,0.406 -1.211,0.712 v 0 c -0.325,0.305 -0.487,0.701 -0.487,1.19 v 0 c 0,0.665 0.288,1.207 0.864,1.626 v 0 c 0.576,0.421 1.44,0.631 2.593,0.631 v 0 c 0.65,0 1.315,-0.098 1.993,-0.294 v 0 c 0.678,-0.196 1.315,-0.486 1.912,-0.866 v 0 l 0.671,1.628 c -0.583,0.407 -1.281,0.718 -2.095,0.935 v 0 c -0.814,0.217 -1.641,0.326 -2.481,0.326 v 0 c -1.207,0 -2.217,-0.184 -3.03,-0.549"
               style="fill:url(#linearGradient294);stroke:none"
               id="path296" /></g></g></g></g><g
       id="g298"><g
         id="g300"><g
           id="g306"><g
             id="g308"><path
               d="m 412.355,402.839 v -8.013 c 0,-1.546 -0.346,-2.695 -1.037,-3.447 v 0 c -0.691,-0.752 -1.688,-1.129 -2.99,-1.129 v 0 c -2.671,0 -4.007,1.525 -4.007,4.576 v 0 8.013 h -2.033 v -8.094 c 0,-2.035 0.529,-3.593 1.586,-4.678 v 0 c 1.058,-1.084 2.535,-1.627 4.433,-1.627 v 0 c 1.899,0 3.376,0.539 4.435,1.616 v 0 c 1.056,1.079 1.586,2.641 1.586,4.689 v 0 8.094 z"
               style="fill:url(#linearGradient316);stroke:none"
               id="path318" /></g></g></g></g><g
       id="g320"><g
         id="g322"><g
           id="g328"><g
             id="g330"><path
               d="m 422.077,402.839 -6.448,-14.236 h 2.095 l 1.566,3.559 h 7.566 l 1.566,-3.559 h 2.135 l -6.467,14.236 z m 0.996,-2.074 3.071,-6.976 h -6.142 z"
               style="fill:url(#linearGradient338);stroke:none"
               id="path340" /></g></g></g></g><g
       id="g342"><g
         id="g344"><g
           id="g350"><g
             id="g352"><path
               d="m 432.266,402.839 v -14.236 h 9.741 v 1.769 h -7.708 v 12.467 z"
               style="fill:url(#linearGradient360);stroke:none"
               id="path362" /></g></g></g></g><g
       id="g364"><g
         id="g366"><g
           id="g372"><g
             id="g374"><path
               d="m 443.939,388.603 h 2.033 v 14.236 h -2.033 z"
               style="fill:url(#linearGradient382);stroke:none"
               id="path384" /></g></g></g></g><g
       id="g386"><g
         id="g388"><g
           id="g394"><g
             id="g396"><path
               d="m 448.718,402.839 v -1.768 h 8.807 l -8.949,-11.086 v -1.382 h 11.898 v 1.769 h -9.173 l 8.909,11.084 v 1.383 z"
               style="fill:url(#linearGradient404);stroke:none"
               id="path406" /></g></g></g></g><g
       id="g408"><g
         id="g410"><g
           id="g416"><g
             id="g418"><path
               d="m 462.792,402.839 v -14.236 h 10.332 v 1.769 h -8.298 v 4.597 h 7.139 v 1.728 h -7.139 v 4.374 h 8.013 v 1.768 z"
               style="fill:url(#linearGradient426);stroke:none"
               id="path428" /></g></g></g></g><g
       id="g430"><g
         id="g432"><g
           id="g438"><g
             id="g440"><path
               d="m 490.166,402.839 -4.576,-7.504 -4.555,7.504 h -2.177 l 5.654,-9.274 v -4.962 h 2.014 v 4.921 l 5.654,9.315 z"
               style="fill:url(#linearGradient448);stroke:none"
               id="path450" /></g></g></g></g><g
       id="g452"><g
         id="g454"><g
           id="g460"><g
             id="g462"><path
               d="m 495.76,402.056 c -1.153,-0.63 -2.058,-1.501 -2.716,-2.613 v 0 c -0.658,-1.112 -0.986,-2.353 -0.986,-3.722 v 0 c 0,-1.37 0.328,-2.61 0.986,-3.722 v 0 c 0.658,-1.112 1.563,-1.982 2.716,-2.613 v 0 c 1.153,-0.631 2.447,-0.946 3.884,-0.946 v 0 c 1.424,0 2.712,0.315 3.864,0.946 v 0 c 1.153,0.631 2.054,1.497 2.705,2.604 v 0 c 0.651,1.104 0.977,2.348 0.977,3.731 v 0 c 0,1.382 -0.326,2.626 -0.977,3.732 v 0 c -0.651,1.105 -1.552,1.973 -2.705,2.603 v 0 c -1.152,0.63 -2.44,0.946 -3.864,0.946 v 0 c -1.437,0 -2.731,-0.316 -3.884,-0.946 m 1.047,-11.094 c -0.848,0.474 -1.512,1.128 -1.993,1.963 v 0 c -0.482,0.834 -0.722,1.765 -0.722,2.796 v 0 c 0,1.03 0.24,1.963 0.722,2.796 v 0 c 0.481,0.835 1.145,1.488 1.993,1.962 v 0 c 0.847,0.475 1.793,0.713 2.837,0.713 v 0 c 1.044,0 1.983,-0.238 2.817,-0.713 v 0 c 0.833,-0.474 1.49,-1.127 1.972,-1.962 v 0 c 0.482,-0.833 0.723,-1.766 0.723,-2.796 v 0 c 0,-1.031 -0.241,-1.962 -0.723,-2.796 v 0 c -0.482,-0.835 -1.139,-1.489 -1.972,-1.963 v 0 c -0.834,-0.475 -1.773,-0.712 -2.817,-0.712 v 0 c -1.044,0 -1.99,0.237 -2.837,0.712"
               style="fill:url(#linearGradient470);stroke:none"
               id="path472" /></g></g></g></g><g
       id="g474"><g
         id="g476"><g
           id="g482"><g
             id="g484"><path
               d="m 519.839,402.839 v -8.013 c 0,-1.546 -0.346,-2.695 -1.038,-3.447 v 0 c -0.691,-0.752 -1.687,-1.129 -2.989,-1.129 v 0 c -2.672,0 -4.006,1.525 -4.006,4.576 v 0 8.013 h -2.034 v -8.094 c 0,-2.035 0.528,-3.593 1.586,-4.678 v 0 c 1.058,-1.084 2.535,-1.627 4.434,-1.627 v 0 c 1.898,0 3.376,0.539 4.433,1.616 v 0 c 1.058,1.079 1.587,2.641 1.587,4.689 v 0 8.094 z"
               style="fill:url(#linearGradient492);stroke:none"
               id="path494" /></g></g></g></g><g
       id="g496"><g
         id="g498"><g
           id="g504"><g
             id="g506"><path
               d="m 525.574,402.839 v -14.236 h 2.034 v 4.332 h 3.519 c 0.216,0 0.515,0.013 0.894,0.041 v 0 l 3.071,-4.373 h 2.217 l -3.376,4.779 c 1.003,0.353 1.776,0.916 2.318,1.688 v 0 c 0.542,0.772 0.814,1.709 0.814,2.806 v 0 c 0,1.546 -0.529,2.76 -1.587,3.642 v 0 c -1.057,0.88 -2.508,1.321 -4.351,1.321 v 0 z m 2.034,-1.768 h 3.457 c 1.289,0 2.271,-0.275 2.949,-0.824 v 0 c 0.678,-0.551 1.017,-1.34 1.017,-2.371 v 0 c 0,-1.029 -0.339,-1.823 -1.017,-2.379 v 0 c -0.678,-0.556 -1.66,-0.834 -2.949,-0.834 v 0 h -3.457 z"
               style="fill:url(#linearGradient514);stroke:none"
               id="path516" /></g></g></g></g><g
       id="g518"><g
         id="g520"><g
           id="g526"><g
             id="g528"><path
               d="m 547.538,402.056 c -1.153,-0.63 -2.053,-1.498 -2.704,-2.603 v 0 c -0.652,-1.106 -0.976,-2.35 -0.976,-3.732 v 0 c 0,-1.383 0.324,-2.627 0.976,-3.731 v 0 c 0.651,-1.107 1.548,-1.973 2.695,-2.604 v 0 c 1.145,-0.631 2.43,-0.946 3.853,-0.946 v 0 c 1.112,0 2.132,0.19 3.061,0.569 v 0 c 0.929,0.38 1.719,0.937 2.37,1.667 v 0 l -1.322,1.283 c -1.086,-1.139 -2.42,-1.709 -4.007,-1.709 v 0 c -1.058,0 -2.013,0.237 -2.867,0.712 v 0 c -0.854,0.474 -1.522,1.128 -2.004,1.963 v 0 c -0.481,0.834 -0.722,1.765 -0.722,2.796 v 0 c 0,1.03 0.241,1.963 0.722,2.796 v 0 c 0.482,0.835 1.15,1.488 2.004,1.962 v 0 c 0.854,0.475 1.809,0.713 2.867,0.713 v 0 c 1.6,0 2.936,-0.563 4.007,-1.688 v 0 l 1.322,1.281 c -0.651,0.733 -1.437,1.285 -2.36,1.658 v 0 c -0.922,0.373 -1.939,0.559 -3.05,0.559 v 0 c -1.424,0 -2.713,-0.316 -3.865,-0.946"
               style="fill:url(#linearGradient536);stroke:none"
               id="path538" /></g></g></g></g><g
       id="g540"><g
         id="g542"><g
           id="g548"><g
             id="g550"><path
               d="m 569.524,402.839 v -6.121 h -8.176 v 6.121 h -2.035 v -14.236 h 2.035 v 6.345 h 8.176 v -6.345 h 2.034 v 14.236 z"
               style="fill:url(#linearGradient558);stroke:none"
               id="path560" /></g></g></g></g><g
       id="g562"><g
         id="g564"><g
           id="g570"><g
             id="g572"><path
               d="m 579.712,402.839 -6.446,-14.236 h 2.094 l 1.566,3.559 h 7.566 l 1.566,-3.559 h 2.135 l -6.467,14.236 z m 0.997,-2.074 3.071,-6.976 h -6.142 z"
               style="fill:url(#linearGradient580);stroke:none"
               id="path582" /></g></g></g></g><g
       id="g584"><g
         id="g586"><g
           id="g592"><g
             id="g594"><path
               d="m 600.111,402.839 v -10.616 l -8.542,10.616 h -1.668 v -14.236 h 2.034 v 10.615 l 8.542,-10.615 h 1.669 v 14.236 z"
               style="fill:url(#linearGradient602);stroke:none"
               id="path604" /></g></g></g></g><g
       id="g606"><g
         id="g608"><g
           id="g614"><g
             id="g616"><path
               d="m 608.562,402.066 c -1.16,-0.624 -2.068,-1.49 -2.725,-2.603 v 0 c -0.658,-1.111 -0.987,-2.36 -0.987,-3.742 v 0 c 0,-1.383 0.329,-2.627 0.987,-3.731 v 0 c 0.657,-1.107 1.562,-1.973 2.715,-2.604 v 0 c 1.152,-0.631 2.446,-0.946 3.884,-0.946 v 0 c 1.017,0 1.993,0.156 2.929,0.468 v 0 c 0.935,0.311 1.756,0.759 2.461,1.342 v 0 5.553 h -1.953 v -4.638 c -0.949,-0.609 -2.061,-0.915 -3.335,-0.915 v 0 c -1.071,0 -2.037,0.237 -2.899,0.712 v 0 c -0.86,0.474 -1.535,1.128 -2.023,1.963 v 0 c -0.488,0.834 -0.733,1.765 -0.733,2.796 v 0 c 0,1.044 0.245,1.982 0.733,2.816 v 0 c 0.488,0.834 1.163,1.485 2.023,1.953 v 0 c 0.862,0.468 1.835,0.702 2.919,0.702 v 0 c 1.614,0 2.99,-0.55 4.128,-1.647 v 0 l 1.262,1.26 c -0.651,0.719 -1.442,1.265 -2.37,1.638 v 0 c -0.928,0.373 -1.963,0.559 -3.102,0.559 v 0 c -1.451,0 -2.756,-0.312 -3.914,-0.936"
               style="fill:url(#linearGradient624);stroke:none"
               id="path626" /></g></g></g></g><g
       id="g628"><g
         id="g630"><g
           id="g636"><g
             id="g638"><path
               d="m 621.302,402.839 v -14.236 h 10.332 v 1.769 h -8.298 v 4.597 h 7.139 v 1.728 h -7.139 v 4.374 h 8.014 v 1.768 z"
               style="fill:url(#linearGradient646);stroke:none"
               id="path648" /></g></g></g></g><g
       id="g650"><g
         id="g652"><g
           id="g658"><g
             id="g660"><path
               d="m 557.27,605.33 v -19.281 c 0,-3.529 -2.88,-6.408 -6.411,-6.408 v 0 c -3.539,0 -6.408,2.879 -6.408,6.408 v 0 19.281 H 531.74 v -19.281 c 0,-3.529 -2.88,-6.408 -6.41,-6.408 v 0 c -3.54,0 -6.41,2.879 -6.41,6.408 v 0 19.281 H 506.5 v -19.281 c 0,-3.529 -2.88,-6.408 -6.41,-6.408 v 0 c -3.54,0 -6.409,2.879 -6.409,6.408 v 0 19.281 H 481.25 v -19.281 c 0,-3.529 -2.88,-6.408 -6.41,-6.408 v 0 c -3.541,0 -6.41,2.879 -6.41,6.408 v 0 19.281 h -12.881 v -19.281 c 0,-3.529 -2.869,-6.408 -6.408,-6.408 v 0 c -3.531,0 -6.411,2.879 -6.411,6.408 v 0 19.281 H 433.5 V 480.65 c 0,-4.6 3.73,-8.33 8.33,-8.33 v 0 h 116.34 c 4.6,0 8.33,3.73 8.33,8.33 v 0 124.68 z M 444.81,487.049 v 80.191 h 109.76 v -80.191 c 0,-2.17 -1.76,-3.929 -3.93,-3.929 v 0 h -101.9 c -2.17,0 -3.93,1.759 -3.93,3.929"
               style="fill:url(#linearGradient668);stroke:none"
               id="path670" /></g></g></g></g><g
       id="g672"><g
         id="g674"><g
           id="g680"><g
             id="g682"><path
               d="m 503.499,560.423 v -70.481 h 33.014 l 11.538,10.154 v 51.275 l -10.275,9.052 z m 9.094,-9.095 h 21.748 l 4.617,-4.066 v -43.054 l -5.877,-5.172 h -20.488 z"
               style="fill:url(#linearGradient690);stroke:none"
               id="path692" /></g></g></g></g><g
       id="g694"><g
         id="g696"><g
           id="g702"><g
             id="g704"><path
               d="m 451.948,560.423 v -67.471 c 0,-1.663 1.348,-3.01 3.009,-3.01 v 0 h 41.324 v 39.787 h -23.237 v -9.093 h 14.142 v -21.6 h -26.144 v 52.292 h 26.144 v -10.355 h 9.095 v 19.45 z"
               style="fill:url(#linearGradient712);stroke:none"
               id="path714" /></g></g></g></g><g
       id="g716"><g
         id="g718"><g
           id="g724"><g
             id="g726"><path
               d="m 445.732,608.15 v -22.096 c 0,-1.884 1.527,-3.41 3.411,-3.41 v 0 c 1.883,0 3.41,1.526 3.41,3.41 v 0 22.096 c 0,1.883 -1.527,3.41 -3.41,3.41 v 0 c -1.884,0 -3.411,-1.527 -3.411,-3.41"
               style="fill:url(#linearGradient734);stroke:none"
               id="path736" /></g></g></g></g><g
       id="g738"><g
         id="g740"><g
           id="g746"><g
             id="g748"><path
               d="m 471.426,608.15 v -22.096 c 0,-1.884 1.527,-3.41 3.41,-3.41 v 0 c 1.884,0 3.41,1.526 3.41,3.41 v 0 22.096 c 0,1.883 -1.526,3.41 -3.41,3.41 v 0 c -1.883,0 -3.41,-1.527 -3.41,-3.41"
               style="fill:url(#linearGradient756);stroke:none"
               id="path758" /></g></g></g></g><g
       id="g760"><g
         id="g762"><g
           id="g768"><g
             id="g770"><path
               d="m 496.678,608.15 v -22.096 c 0,-1.884 1.527,-3.41 3.411,-3.41 v 0 c 1.882,0 3.41,1.526 3.41,3.41 v 0 22.096 c 0,1.883 -1.528,3.41 -3.41,3.41 v 0 c -1.884,0 -3.411,-1.527 -3.411,-3.41"
               style="fill:url(#linearGradient778);stroke:none"
               id="path780" /></g></g></g></g><g
       id="g782"><g
         id="g784"><g
           id="g790"><g
             id="g792"><path
               d="m 521.919,608.15 v -22.096 c 0,-1.884 1.527,-3.41 3.411,-3.41 v 0 c 1.883,0 3.41,1.526 3.41,3.41 v 0 22.096 c 0,1.883 -1.527,3.41 -3.41,3.41 v 0 c -1.884,0 -3.411,-1.527 -3.411,-3.41"
               style="fill:url(#linearGradient800);stroke:none"
               id="path802" /></g></g></g></g><g
       id="g804"><g
         id="g806"><g
           id="g812"><g
             id="g814"><path
               d="m 547.447,608.15 v -22.096 c 0,-1.884 1.526,-3.41 3.41,-3.41 v 0 c 1.884,0 3.411,1.526 3.411,3.41 v 0 22.096 c 0,1.883 -1.527,3.41 -3.411,3.41 v 0 c -1.884,0 -3.41,-1.527 -3.41,-3.41"
               style="fill:url(#linearGradient822);stroke:none"
               id="path824" /></g></g></g></g></g></svg>
